<?xml version="1.0" encoding="utf-8"?>
<!-- Generator: Adobe Illustrator 24.2.1, SVG Export Plug-In . SVG Version: 6.00 Build 0)  -->
<svg version="1.1" xmlns="http://www.w3.org/2000/svg" xmlns:xlink="http://www.w3.org/1999/xlink" x="0px" y="0px"
	 viewBox="0 0 3710 3710" style="enable-background:new 0 0 3710 3710;" xml:space="preserve">
<style type="text/css">
	.st0{fill:url(#SVGID_1_);}
	.st1{fill:#91B3FA;}
	.st2{fill:#BDD0FB;}
	.st3{fill:url(#SVGID_2_);}
	.st4{fill:url(#SVGID_3_);}
	.st5{fill:url(#SVGID_4_);}
	.st6{fill:url(#SVGID_5_);}
	.st7{opacity:3.000000e-02;fill:#FFFFFF;}
	.st8{fill:#7D97F4;}
	.st9{fill:#FFFFFF;}
	.st10{opacity:0.4;fill:#FFFFFF;}
	.st11{opacity:0.59;fill:#FFFFFF;}
	.st12{opacity:0.27;fill:#FFFFFF;}
	.st13{fill:url(#SVGID_6_);}
	.st14{fill:url(#SVGID_7_);}
	.st15{fill:url(#SVGID_8_);}
	.st16{fill:url(#SVGID_9_);}
	.st17{fill:url(#SVGID_10_);}
	.st18{fill:url(#SVGID_11_);}
	.st19{fill:url(#SVGID_12_);}
	.st20{fill:url(#SVGID_13_);}
	.st21{fill:url(#SVGID_14_);}
	.st22{fill:url(#SVGID_15_);}
	.st23{fill:url(#SVGID_16_);}
	.st24{fill:url(#SVGID_17_);}
	.st25{fill:url(#SVGID_18_);}
	.st26{fill:url(#SVGID_19_);}
	.st27{fill:url(#SVGID_20_);}
	.st28{fill:url(#SVGID_21_);}
	.st29{fill:url(#SVGID_22_);}
	.st30{fill:url(#SVGID_23_);}
	.st31{fill:url(#SVGID_24_);}
	.st32{fill:url(#SVGID_25_);}
	.st33{fill:url(#SVGID_26_);}
	.st34{fill:url(#SVGID_27_);}
</style>
<linearGradient id="SVGID_1_" gradientUnits="userSpaceOnUse" x1="3486.3301" y1="3674.885" x2="1352.5834" y2="1371.7931">
	<stop  offset="0" style="stop-color:#DAE3FE"/>
	<stop  offset="1" style="stop-color:#E9EFFD"/>
</linearGradient>
<path class="st0" d="M3189,2362.4c-293.2,685.3-1067.1,979.7-1673.5,929.5c-165.6-13.7-498.7-41.3-758.8-287.3
	c-499.5-472.4-422.6-1459.8,55.6-2041.1c61.6-74.9,487.8-576.4,1152.1-569.7c486.3,4.9,827.7,279.6,869.2,313.9
	c52.4,43.2,168.1,146,272.3,309C3350.7,1399.6,3372.2,1934.2,3189,2362.4z"/>
<g>
	<g>
		<path class="st1" d="M2370.6,2420.5c-0.9,0-1.8-0.3-2.6-0.9c-1.9-1.4-2.3-4.2-0.8-6.1c3.5-4.6,7.2-9.3,10.8-13.8
			c1.5-1.9,4.3-2.1,6.1-0.6c1.9,1.5,2.1,4.3,0.6,6.1c-3.6,4.4-7.2,9-10.6,13.5C2373.2,2419.9,2371.9,2420.5,2370.6,2420.5z"/>
		<path class="st1" d="M3182.8,2606.5c-2,0-3.8-1.4-4.3-3.5c-2.3-11.5-5.1-23.1-8.3-34.4c-0.7-2.3,0.7-4.7,3-5.4
			c2.3-0.7,4.7,0.7,5.4,3c3.3,11.5,6.1,23.3,8.4,35.1c0.5,2.4-1.1,4.6-3.4,5.1C3183.4,2606.5,3183.1,2606.5,3182.8,2606.5z
			 M3155.1,2517c-1.7,0-3.3-1-4-2.6c-4.6-10.8-9.7-21.5-15.2-32c-1.1-2.1-0.3-4.8,1.8-5.9c2.1-1.1,4.8-0.3,5.9,1.8
			c5.6,10.6,10.8,21.6,15.5,32.6c0.9,2.2-0.1,4.8-2.3,5.7C3156.3,2516.9,3155.7,2517,3155.1,2517z M3109.8,2435.1
			c-1.4,0-2.7-0.6-3.6-1.9c-6.7-9.7-13.9-19.2-21.3-28.3c-1.5-1.9-1.2-4.6,0.6-6.1c1.9-1.5,4.6-1.2,6.1,0.6
			c7.6,9.3,14.9,18.9,21.7,28.8c1.4,2,0.9,4.7-1.1,6C3111.5,2434.9,3110.6,2435.1,3109.8,2435.1z M2420.8,2364.3
			c-1.2,0-2.3-0.5-3.2-1.4c-1.6-1.7-1.6-4.5,0.2-6.1c8.7-8.2,17.8-16.2,27.2-23.7c1.9-1.5,4.6-1.2,6.1,0.7c1.5,1.9,1.2,4.6-0.7,6.1
			c-9.2,7.4-18.1,15.2-26.6,23.3C2423,2363.9,2421.9,2364.3,2420.8,2364.3z M3048.8,2364.1c-1.1,0-2.1-0.4-3-1.2
			c-8.5-8.1-17.5-15.9-26.6-23.3c-1.9-1.5-2.2-4.2-0.6-6.1c1.5-1.9,4.2-2.2,6.1-0.7c9.3,7.5,18.4,15.5,27.1,23.7
			c1.7,1.7,1.8,4.4,0.2,6.1C3051.1,2363.6,3049.9,2364.1,3048.8,2364.1z M2495.1,2307.3c-1.5,0-2.9-0.7-3.7-2.1
			c-1.3-2-0.6-4.7,1.4-6c10.2-6.3,20.8-12.3,31.4-17.8c2.1-1.1,4.8-0.3,5.9,1.9c1.1,2.1,0.3,4.8-1.9,5.9
			c-10.4,5.4-20.8,11.2-30.8,17.4C2496.7,2307.1,2495.9,2307.3,2495.1,2307.3z M2974.5,2307.1c-0.8,0-1.6-0.2-2.3-0.6
			c-10-6.1-20.3-12-30.8-17.3c-2.1-1.1-3-3.7-1.9-5.8c1.1-2.1,3.7-3,5.9-1.9c10.7,5.5,21.3,11.4,31.4,17.7c2,1.3,2.7,3.9,1.4,6
			C2977.4,2306.3,2976,2307.1,2974.5,2307.1z M2579.4,2266.4c-1.8,0-3.4-1.1-4.1-2.9c-0.8-2.3,0.3-4.7,2.6-5.6
			c11.3-4.1,22.8-7.8,34.4-11c2.3-0.6,4.7,0.7,5.3,3c0.6,2.3-0.7,4.7-3,5.3c-11.3,3.1-22.7,6.7-33.7,10.8
			C2580.4,2266.4,2579.9,2266.4,2579.4,2266.4z M2890.2,2266.4c-0.5,0-1-0.1-1.5-0.3c-11-4-22.4-7.6-33.7-10.7c-2.3-0.6-3.7-3-3-5.3
			c0.6-2.3,3-3.7,5.3-3c11.6,3.2,23.1,6.8,34.4,10.9c2.3,0.8,3.4,3.3,2.6,5.6C2893.7,2265.3,2892,2266.4,2890.2,2266.4z
			 M2799.4,2243.8c-0.2,0-0.4,0-0.6,0c-11.6-1.7-23.5-2.9-35.2-3.6c-2.4-0.2-4.2-2.2-4.1-4.6c0.2-2.4,2.3-4.1,4.6-4.1
			c12,0.8,24,2,35.9,3.7c2.4,0.3,4,2.5,3.7,4.9C2803.3,2242.2,2801.5,2243.8,2799.4,2243.8z M2670.2,2243.7c-2.1,0-4-1.6-4.3-3.7
			c-0.3-2.4,1.3-4.6,3.7-4.9c11.9-1.7,23.9-2.9,35.9-3.7c2.4,0,4.5,1.7,4.6,4.1c0.2,2.4-1.7,4.5-4.1,4.6c-11.7,0.7-23.6,2-35.2,3.6
			C2670.7,2243.7,2670.4,2243.7,2670.2,2243.7z"/>
		<path class="st1" d="M3191.4,2681.5c-2.3,0-4.3-1.9-4.3-4.2c-0.2-5.7-0.5-11.5-0.9-17.2c-0.2-2.4,1.6-4.5,4-4.6
			c2.4-0.1,4.5,1.6,4.6,4c0.4,5.8,0.7,11.7,0.9,17.5c0.1,2.4-1.8,4.4-4.2,4.5C3191.5,2681.5,3191.4,2681.5,3191.4,2681.5z"/>
	</g>
	<g>
		<path class="st1" d="M3062.8,3013.8c-1.1,0-2.2-0.4-3-1.2c-1.7-1.7-1.8-4.4-0.1-6.1c4-4.1,8-8.4,11.8-12.6
			c1.6-1.8,4.4-1.9,6.1-0.3c1.8,1.6,1.9,4.4,0.3,6.1c-3.9,4.3-7.9,8.6-12,12.8C3065.1,3013.3,3064,3013.8,3062.8,3013.8z"/>
		<path class="st1" d="M2735.4,3152.5l-3.9,0c-2.4,0-4.3-2-4.3-4.4c0-2.4,2-4.3,4.3-4.3c0,0,0,0,0,0l3.9,0c10.3,0,20.7-0.4,30.9-1.1
			c2.4-0.1,4.5,1.6,4.6,4c0.2,2.4-1.6,4.5-4,4.6C2756.4,3152.2,2745.8,3152.5,2735.4,3152.5z M2674.5,3148.5c-0.2,0-0.4,0-0.6,0
			c-11.7-1.6-23.4-3.6-35-6.1c-2.3-0.5-3.8-2.8-3.3-5.2c0.5-2.4,2.8-3.8,5.2-3.3c11.3,2.4,22.9,4.4,34.3,5.9c2.4,0.3,4,2.5,3.7,4.9
			C2678.5,3146.9,2676.7,3148.5,2674.5,3148.5z M2823.2,3144c-2,0-3.9-1.4-4.3-3.5c-0.5-2.4,1.1-4.6,3.4-5.1
			c11.4-2.2,22.8-4.9,33.9-8c2.3-0.7,4.7,0.7,5.4,3c0.6,2.3-0.7,4.7-3,5.4c-11.3,3.2-23,5.9-34.5,8.2
			C2823.8,3144,2823.5,3144,2823.2,3144z M2584.9,3127.1c-0.5,0-1-0.1-1.4-0.2c-11.2-3.9-22.3-8.2-33-12.9c-2.2-1-3.2-3.5-2.2-5.7
			c1-2.2,3.5-3.2,5.7-2.2c10.6,4.6,21.5,8.9,32.4,12.7c2.3,0.8,3.5,3.3,2.7,5.5C2588.4,3126,2586.7,3127.1,2584.9,3127.1z
			 M2911.4,3117.1c-1.7,0-3.3-1-4-2.7c-0.9-2.2,0.1-4.8,2.3-5.7c10.6-4.5,21.2-9.4,31.6-14.7c2.1-1.1,4.8-0.3,5.9,1.9
			c1.1,2.1,0.3,4.8-1.9,5.9c-10.5,5.4-21.3,10.5-32.2,15C2912.5,3117,2911.9,3117.1,2911.4,3117.1z M2501.3,3088.3
			c-0.8,0-1.5-0.2-2.2-0.6c-10.1-6-20.1-12.5-29.8-19.3c-2-1.4-2.4-4.1-1.1-6.1c1.4-2,4.1-2.4,6.1-1.1c9.5,6.7,19.3,13,29.2,18.9
			c2.1,1.2,2.7,3.9,1.5,6C2504.3,3087.6,2502.8,3088.3,2501.3,3088.3z M2992.3,3073c-1.4,0-2.8-0.7-3.6-1.9c-1.4-2-0.8-4.7,1.1-6
			c9.6-6.5,19-13.5,28-20.7c1.9-1.5,4.6-1.2,6.1,0.7c1.5,1.9,1.2,4.6-0.7,6.1c-9.2,7.4-18.8,14.4-28.5,21.1
			C2994,3072.8,2993.1,3073,2992.3,3073z M2427.3,3033.5c-1,0-2.1-0.4-2.9-1.1c-8.7-7.9-17.2-16.3-25.3-24.9
			c-1.6-1.7-1.6-4.5,0.2-6.1c1.7-1.6,4.5-1.6,6.1,0.2c7.9,8.4,16.3,16.7,24.8,24.4c1.8,1.6,1.9,4.4,0.3,6.1
			C2429.7,3033,2428.5,3033.5,2427.3,3033.5z M2365.9,2964.8c-1.3,0-2.7-0.6-3.5-1.8c-5.4-7.5-10.8-15.3-15.8-23.1
			c-1.4-2.1-2.7-4.2-4-6.4c-1.3-2-0.6-4.7,1.4-6c2-1.3,4.7-0.6,6,1.4c1.3,2.1,2.6,4.2,3.9,6.2c4.9,7.7,10.1,15.3,15.5,22.7
			c1.4,1.9,1,4.7-1,6.1C2367.7,2964.5,2366.8,2964.8,2365.9,2964.8z M2319.4,2885.3c-1.6,0-3.2-0.9-4-2.5
			c-4.9-10.7-9.4-21.8-13.5-32.8c-0.8-2.3,0.3-4.8,2.6-5.6c2.2-0.8,4.7,0.3,5.6,2.6c4,10.9,8.4,21.7,13.2,32.2c1,2.2,0,4.8-2.1,5.8
			C2320.6,2885.1,2320,2885.3,2319.4,2885.3z M2289.8,2798c-2,0-3.8-1.4-4.2-3.4c-2.6-11.5-4.9-23.2-6.6-34.9
			c-0.4-2.4,1.3-4.6,3.7-4.9c2.3-0.4,4.6,1.3,4.9,3.7c1.7,11.4,3.9,23,6.5,34.2c0.5,2.3-0.9,4.7-3.3,5.2
			C2290.4,2798,2290.1,2798,2289.8,2798z"/>
		<path class="st1" d="M2278.4,2706.4c-2.4,0-4.3-1.9-4.3-4.2c-0.1-5.8-0.1-11.7-0.1-17.5c0-2.4,2-4.2,4.4-4.3c2.4,0,4.3,2,4.3,4.4
			c-0.1,5.7-0.1,11.5,0.1,17.2c0.1,2.4-1.8,4.4-4.2,4.4C2278.4,2706.4,2278.4,2706.4,2278.4,2706.4z"/>
	</g>
	<g>
		<path class="st1" d="M2387.6,2642.1c-0.6,2.3,0.4,4.6,2.3,5.9l55.8,36.6c-0.6,31.1,3.8,62.6,13.5,93.2l-43,50.9
			c-1.5,1.8-1.7,4.3-0.5,6.3l40.9,68.7c1.2,2,3.5,3,5.8,2.6l65.3-13.6c22.3,23.1,47.8,41.9,75.5,56.3l5.6,66.5
			c0.2,2.3,1.8,4.3,4.1,4.9l77.6,19.7c2.3,0.6,4.6-0.4,5.9-2.3l36.6-55.8c31.1,0.6,62.6-3.8,93.2-13.5l50.9,43
			c1.8,1.5,4.3,1.7,6.3,0.5l68.7-40.9c2-1.2,3-3.5,2.6-5.8l-13.6-65.3c23.1-22.3,41.9-47.8,56.3-75.5l66.5-5.6
			c2.3-0.2,4.3-1.8,4.9-4.1l19.7-77.6c0.6-2.3-0.4-4.6-2.3-5.9l-55.8-36.6c0.6-31.1-3.8-62.6-13.5-93.2l43-50.9
			c1.5-1.8,1.7-4.3,0.5-6.3l-40.9-68.7c-1.2-2-3.5-3-5.8-2.6l-65.3,13.6c-22.3-23.1-47.8-41.9-75.5-56.3l-5.6-66.5
			c-0.2-2.3-1.8-4.3-4.1-4.9l-77.6-19.7c-2.3-0.6-4.6,0.4-5.9,2.3l-36.6,55.8c-31.1-0.6-62.6,3.8-93.2,13.5l-50.9-43
			c-1.8-1.5-4.3-1.7-6.3-0.5l-68.7,40.9c-2,1.2-3,3.5-2.6,5.8l13.6,65.3c-23.1,22.3-41.9,47.8-56.3,75.5l-66.5,5.6
			c-2.3,0.2-4.3,1.8-4.9,4.1L2387.6,2642.1z"/>
		<g>
			<path class="st2" d="M2738,2767.2C2738,2767.2,2738,2767.2,2738,2767.2c-20.8,0-40.3-8.1-54.9-22.8
				c-14.6-14.7-22.7-34.1-22.7-54.9c0-20.7,8.1-40.2,22.8-54.8c30.3-30.2,79.5-30.2,109.7,0.1c14.6,14.7,22.7,34.1,22.7,54.9
				c0,20.7-8.1,40.2-22.8,54.8C2778.1,2759.1,2758.7,2767.2,2738,2767.2z M2738,2625.1c-17.2,0-33.4,6.7-45.6,18.9
				c-12.2,12.2-18.9,28.4-18.9,45.6c0,17.2,6.7,33.4,18.9,45.6c12.2,12.2,28.4,18.9,45.6,18.9c0,0,0,0,0.1,0
				c17.2,0,33.4-6.7,45.6-18.9c12.2-12.2,18.9-28.4,18.9-45.6c0-17.2-6.7-33.4-18.9-45.6C2771.5,2631.8,2755.3,2625.1,2738,2625.1
				L2738,2625.1z"/>
		</g>
		<path class="st2" d="M2740,2889.4c-68.1,0-134.5-34.8-171.8-97.4c-7.3-12.2-13.3-25.2-17.8-38.6l12.4-4.2
			c4.2,12.5,9.8,24.6,16.6,36.1c41.4,69.4,121,102.3,196.1,87.6c0.1,0,0.3-0.1,0.4-0.1c0.1,0,0.3-0.1,0.4-0.1
			c20.2-4,40.1-11.5,58.7-22.6c42.8-25.5,73.1-66.1,85.4-114.4c3.9-15.3,5.8-30.8,5.8-46.2c0-33.2-8.9-65.9-26.3-95.1
			c-52.6-88.4-167.4-117.4-255.7-64.8c-29.1,17.3-52.8,42.1-68.8,71.7l-11.5-6.2c17-31.7,42.5-58.2,73.6-76.8
			c94.5-56.3,217.3-25.2,273.6,69.3c18.6,31.3,28.2,66.2,28.2,101.7c0,16.5-2,33-6.2,49.4c-13.1,51.7-45.5,95.2-91.3,122.4
			C2809.9,2880.4,2774.7,2889.4,2740,2889.4z"/>
	</g>
</g>
<g>
	<g>
		<path class="st1" d="M617.5,621c-1.1,0-2.2-0.3-3.1-1c-2.3-1.7-2.7-4.9-1-7.2c4.2-5.5,8.5-11,12.8-16.3c1.8-2.2,5-2.5,7.2-0.7
			c2.2,1.8,2.5,5,0.7,7.2c-4.3,5.2-8.5,10.6-12.6,16C620.5,620.3,619,621,617.5,621z"/>
		<path class="st1" d="M1576.2,840.5c-2.4,0-4.5-1.7-5-4.1c-2.7-13.6-6-27.3-9.8-40.6c-0.8-2.7,0.8-5.6,3.5-6.3
			c2.7-0.8,5.6,0.8,6.3,3.5c3.8,13.6,7.2,27.5,10,41.4c0.6,2.8-1.3,5.5-4,6C1576.9,840.5,1576.5,840.5,1576.2,840.5z M1543.5,735
			c-2,0-3.9-1.2-4.7-3.1c-5.4-12.7-11.5-25.4-17.9-37.7c-1.3-2.5-0.3-5.6,2.2-6.9c2.5-1.3,5.6-0.3,6.9,2.2
			c6.6,12.6,12.7,25.5,18.2,38.5c1.1,2.6-0.1,5.6-2.7,6.7C1544.9,734.8,1544.2,735,1543.5,735z M1490,638.3c-1.6,0-3.2-0.8-4.2-2.2
			c-7.9-11.4-16.4-22.6-25.1-33.4c-1.8-2.2-1.5-5.4,0.7-7.2c2.2-1.8,5.4-1.5,7.2,0.7c8.9,10.9,17.5,22.4,25.6,34
			c1.6,2.3,1,5.5-1.3,7.1C1492,638,1491,638.3,1490,638.3z M676.8,554.7c-1.4,0-2.7-0.5-3.7-1.6c-1.9-2.1-1.9-5.3,0.2-7.2
			c10.3-9.7,21-19.1,32.1-28c2.2-1.8,5.4-1.4,7.2,0.8c1.8,2.2,1.4,5.4-0.8,7.2c-10.8,8.7-21.4,18-31.5,27.5
			C679.3,554.2,678.1,554.7,676.8,554.7z M1418,554.4c-1.3,0-2.5-0.5-3.5-1.4c-10.1-9.5-20.6-18.8-31.4-27.5c-2.2-1.8-2.5-5-0.8-7.2
			c1.8-2.2,5-2.5,7.2-0.8c11,8.9,21.8,18.3,32,28c2.1,1.9,2.1,5.2,0.2,7.2C1420.7,553.9,1419.4,554.4,1418,554.4z M764.5,487.4
			c-1.7,0-3.4-0.9-4.4-2.4c-1.5-2.4-0.7-5.6,1.7-7.1c12.1-7.4,24.5-14.5,37.1-21c2.5-1.3,5.6-0.3,6.9,2.2c1.3,2.5,0.3,5.6-2.2,6.9
			c-12.3,6.3-24.5,13.3-36.4,20.6C766.3,487.1,765.4,487.4,764.5,487.4z M1330.4,487.1c-0.9,0-1.8-0.2-2.7-0.8
			c-11.8-7.2-24-14.1-36.4-20.5c-2.5-1.3-3.5-4.4-2.2-6.9c1.3-2.5,4.4-3.5,6.9-2.2c12.6,6.5,25.1,13.5,37.1,20.9
			c2.4,1.5,3.2,4.6,1.7,7.1C1333.8,486.3,1332.1,487.1,1330.4,487.1z M864,439.2c-2.1,0-4.1-1.3-4.8-3.4c-1-2.7,0.4-5.6,3.1-6.6
			c13.3-4.8,26.9-9.2,40.6-12.9c2.7-0.8,5.6,0.8,6.3,3.6c0.8,2.7-0.8,5.6-3.6,6.3c-13.4,3.7-26.7,8-39.8,12.7
			C865.1,439.1,864.5,439.2,864,439.2z M1230.8,439.2c-0.6,0-1.2-0.1-1.7-0.3c-13-4.7-26.4-9-39.8-12.6c-2.7-0.8-4.3-3.6-3.6-6.3
			c0.8-2.7,3.6-4.3,6.3-3.6c13.6,3.7,27.3,8.1,40.6,12.9c2.7,1,4,3.9,3.1,6.6C1234.9,437.9,1232.9,439.2,1230.8,439.2z
			 M1123.6,412.5c-0.2,0-0.5,0-0.7-0.1c-13.7-2-27.7-3.4-41.5-4.3c-2.8-0.2-5-2.6-4.8-5.5c0.2-2.8,2.7-4.9,5.4-4.8
			c14.1,0.9,28.4,2.4,42.3,4.4c2.8,0.4,4.8,3,4.3,5.8C1128.3,410.6,1126.1,412.5,1123.6,412.5z M971.2,412.4c-2.5,0-4.7-1.8-5.1-4.4
			c-0.4-2.8,1.6-5.4,4.4-5.8c14-2,28.2-3.5,42.3-4.3c2.9-0.1,5.3,2,5.4,4.8c0.2,2.8-2,5.3-4.8,5.4c-13.8,0.9-27.8,2.3-41.5,4.3
			C971.7,412.4,971.4,412.4,971.2,412.4z"/>
		<path class="st1" d="M1586.3,929.1c-2.8,0-5-2.2-5.1-5c-0.2-6.7-0.5-13.6-1-20.3c-0.2-2.8,1.9-5.3,4.8-5.5
			c2.8-0.1,5.3,1.9,5.5,4.8c0.5,6.9,0.8,13.8,1,20.7c0.1,2.8-2.1,5.2-5,5.3C1586.4,929.1,1586.4,929.1,1586.3,929.1z"/>
	</g>
	<g>
		<path class="st1" d="M1434.6,1321.3c-1.3,0-2.6-0.5-3.6-1.4c-2-2-2.1-5.2-0.1-7.3c4.7-4.9,9.4-9.9,13.9-14.8
			c1.9-2.1,5.1-2.3,7.2-0.4c2.1,1.9,2.3,5.1,0.4,7.2c-4.6,5.1-9.3,10.2-14.1,15.1C1437.3,1320.8,1435.9,1321.3,1434.6,1321.3z"/>
		<path class="st1" d="M1048,1485.1l-4.6,0c-2.8,0-5.1-2.3-5.1-5.2c0-2.8,2.3-5.1,5.1-5.1h0.1l4.5,0c12.1,0,24.4-0.4,36.5-1.3
			c2.8-0.1,5.3,1.9,5.5,4.8c0.2,2.8-1.9,5.3-4.8,5.5C1072.9,1484.6,1060.4,1485.1,1048,1485.1z M976.2,1480.3c-0.2,0-0.5,0-0.7,0
			c-13.8-1.8-27.7-4.3-41.3-7.1c-2.8-0.6-4.5-3.3-3.9-6.1c0.6-2.8,3.3-4.5,6.1-4c13.4,2.8,27,5.2,40.5,7c2.8,0.4,4.8,3,4.4,5.8
			C981,1478.4,978.8,1480.3,976.2,1480.3z M1151.7,1475c-2.4,0-4.5-1.7-5-4.1c-0.5-2.8,1.3-5.5,4-6c13.4-2.6,26.9-5.8,40-9.5
			c2.7-0.8,5.6,0.8,6.3,3.6c0.8,2.7-0.8,5.6-3.6,6.3c-13.4,3.7-27.1,7-40.8,9.7C1152.4,1475,1152.1,1475,1151.7,1475z M870.4,1455.1
			c-0.6,0-1.1-0.1-1.7-0.3c-13.2-4.6-26.3-9.7-39-15.2c-2.6-1.1-3.8-4.2-2.7-6.8c1.1-2.6,4.1-3.8,6.8-2.7
			c12.5,5.4,25.4,10.5,38.3,15c2.7,0.9,4.1,3.9,3.2,6.5C874.5,1453.8,872.6,1455.1,870.4,1455.1z M1255.8,1443.2
			c-2,0-3.9-1.2-4.7-3.1c-1.1-2.6,0.1-5.6,2.7-6.7c12.5-5.3,25.1-11.1,37.3-17.4c2.5-1.3,5.6-0.3,6.9,2.2c1.3,2.5,0.3,5.6-2.2,6.9
			c-12.4,6.4-25.2,12.3-38,17.7C1257.1,1443.1,1256.4,1443.2,1255.8,1443.2z M771.8,1409.3c-0.9,0-1.8-0.2-2.6-0.7
			c-11.9-7.1-23.8-14.8-35.1-22.8c-2.3-1.6-2.9-4.8-1.2-7.1c1.6-2.3,4.8-2.9,7.1-1.2c11.2,7.9,22.8,15.4,34.5,22.3
			c2.4,1.4,3.2,4.6,1.8,7C775.3,1408.4,773.6,1409.3,771.8,1409.3z M1351.3,1391.3c-1.6,0-3.3-0.8-4.2-2.2c-1.6-2.3-1-5.5,1.3-7.1
			c11.3-7.7,22.4-15.9,33.1-24.4c2.2-1.8,5.4-1.4,7.2,0.8c1.8,2.2,1.4,5.4-0.8,7.2c-10.9,8.7-22.2,17.1-33.7,24.9
			C1353.3,1391,1352.3,1391.3,1351.3,1391.3z M684.5,1344.5c-1.2,0-2.5-0.4-3.5-1.3c-10.2-9.3-20.3-19.2-29.8-29.4
			c-1.9-2.1-1.8-5.3,0.2-7.2c2.1-1.9,5.3-1.8,7.3,0.2c9.4,10,19.2,19.7,29.3,28.8c2.1,1.9,2.2,5.1,0.3,7.2
			C687.2,1344,685.9,1344.5,684.5,1344.5z M612,1263.5c-1.6,0-3.1-0.7-4.2-2.1c-6.4-8.8-12.7-18-18.6-27.3c-1.6-2.5-3.2-5-4.7-7.5
			c-1.5-2.4-0.7-5.6,1.7-7.1c2.4-1.5,5.6-0.7,7.1,1.7c1.5,2.5,3.1,4.9,4.6,7.4c5.8,9.1,12,18.1,18.3,26.8c1.7,2.3,1.2,5.5-1.1,7.2
			C614.1,1263.2,613,1263.5,612,1263.5z M557.1,1169.6c-1.9,0-3.8-1.1-4.7-3c-5.8-12.6-11.1-25.7-15.9-38.7c-1-2.7,0.4-5.6,3.1-6.6
			c2.7-1,5.6,0.4,6.6,3c4.7,12.8,10,25.6,15.6,38c1.2,2.6,0,5.6-2.5,6.8C558.5,1169.5,557.8,1169.6,557.1,1169.6z M522.1,1066.6
			c-2.3,0-4.5-1.6-5-4c-3.1-13.5-5.7-27.4-7.8-41.2c-0.4-2.8,1.5-5.4,4.3-5.8c2.8-0.4,5.4,1.5,5.8,4.3c2,13.5,4.6,27.1,7.6,40.4
			c0.6,2.8-1.1,5.5-3.9,6.1C522.8,1066.6,522.5,1066.6,522.1,1066.6z"/>
		<path class="st1" d="M508.6,958.5c-2.8,0-5.1-2.2-5.1-5c-0.2-6.8-0.2-13.8-0.1-20.7c0-2.8,2.4-5,5.2-5c2.8,0,5.1,2.4,5,5.2
			c-0.1,6.8-0.1,13.6,0.1,20.3c0.1,2.8-2.2,5.2-5,5.2C508.7,958.5,508.7,958.5,508.6,958.5z"/>
	</g>
	<g>
		<path class="st1" d="M637.6,882.6c-0.7,2.7,0.4,5.5,2.7,7l65.8,43.2c-0.7,36.8,4.5,73.9,16,110l-50.8,60.1c-1.8,2.1-2,5.1-0.6,7.5
			l48.3,81.1c1.4,2.4,4.2,3.6,6.9,3l77-16c26.3,27.2,56.4,49.5,89.1,66.4l6.6,78.5c0.2,2.7,2.2,5.1,4.9,5.7l91.5,23.2
			c2.7,0.7,5.5-0.4,7-2.7l43.2-65.8c36.8,0.7,73.9-4.5,110-16l60.1,50.8c2.1,1.8,5.1,2,7.5,0.6l81.1-48.3c2.4-1.4,3.6-4.2,3-6.9
			l-16-77c27.2-26.3,49.5-56.4,66.4-89.1l78.5-6.6c2.7-0.2,5-2.2,5.7-4.9l23.2-91.5c0.7-2.7-0.4-5.5-2.7-7l-65.8-43.2
			c0.7-36.8-4.5-73.9-16-110l50.8-60.1c1.8-2.1,2-5.1,0.6-7.5l-48.3-81.1c-1.4-2.4-4.2-3.6-6.9-3l-77,16
			c-26.3-27.2-56.4-49.5-89.1-66.4l-6.6-78.5c-0.2-2.8-2.2-5.1-4.9-5.7l-91.5-23.2c-2.7-0.7-5.5,0.4-7,2.7l-43.2,65.8
			c-36.8-0.7-73.9,4.5-110,16L887,558.9c-2.1-1.8-5.1-2-7.5-0.6l-81.1,48.3c-2.4,1.4-3.6,4.2-3,6.9l16,77
			c-27.2,26.3-49.5,56.4-66.4,89.1l-78.5,6.6c-2.8,0.2-5.1,2.2-5.7,4.9L637.6,882.6z"/>
		<g>
			<path class="st2" d="M1051.2,1030.2C1051.2,1030.2,1051.1,1030.2,1051.2,1030.2c-24.5,0-47.5-9.6-64.8-26.9
				c-17.3-17.3-26.8-40.3-26.8-64.8c0-24.5,9.6-47.4,26.9-64.7c35.7-35.7,93.8-35.6,129.5,0.1c17.3,17.3,26.8,40.3,26.8,64.8
				c0,24.5-9.6,47.4-26.9,64.7C1098.6,1020.7,1075.6,1030.2,1051.2,1030.2z M1051.2,862.5c-20.3,0-39.4,7.9-53.8,22.3
				C983,899.1,975,918.3,975,938.6c0,20.3,7.9,39.5,22.3,53.9c14.4,14.4,33.5,22.3,53.8,22.4c0,0,0,0,0,0c20.3,0,39.4-7.9,53.8-22.3
				c14.4-14.4,22.3-33.5,22.4-53.8c0-20.3-7.9-39.5-22.3-53.9C1090.7,870.5,1071.6,862.5,1051.2,862.5
				C1051.2,862.5,1051.2,862.5,1051.2,862.5z"/>
		</g>
		<path class="st2" d="M1053.5,1174.5c-80.4,0-158.8-41.1-202.8-115c-8.6-14.4-15.7-29.8-21-45.6l14.6-4.9
			c5,14.8,11.6,29.1,19.6,42.6c48.8,81.9,142.9,120.7,231.5,103.4c0.2,0,0.3-0.1,0.5-0.1c0.2,0,0.3-0.1,0.5-0.1
			c23.8-4.8,47.3-13.6,69.3-26.7c50.5-30.1,86.3-78.1,100.8-135.1c4.6-18.1,6.8-36.4,6.8-54.5c0-39.2-10.5-77.7-31.1-112.2
			c-62.1-104.3-197.5-138.6-301.8-76.5c-34.3,20.4-62.4,49.7-81.2,84.7l-13.6-7.3c20.1-37.4,50.1-68.7,86.8-90.6
			c111.6-66.5,256.5-29.8,322.9,81.9c22,36.9,33.3,78.2,33.3,120.1c0,19.4-2.4,39-7.3,58.3c-15.5,61-53.7,112.3-107.8,144.5
			C1136,1163.8,1094.5,1174.5,1053.5,1174.5z"/>
	</g>
</g>
<g>
	<linearGradient id="SVGID_2_" gradientUnits="userSpaceOnUse" x1="1903.6808" y1="3238.7358" x2="1872.8463" y2="2628.2188">
		<stop  offset="0" style="stop-color:#09005D"/>
		<stop  offset="1" style="stop-color:#1A0F91"/>
	</linearGradient>
	<polygon class="st3" points="1646,2545.6 1594.8,3004.9 2189,3004.9 2111.6,2545.6 	"/>
	<linearGradient id="SVGID_3_" gradientUnits="userSpaceOnUse" x1="399.6762" y1="1861.1328" x2="3248.4275" y2="1861.1328">
		<stop  offset="0" style="stop-color:#09005D"/>
		<stop  offset="1" style="stop-color:#1A0F91"/>
	</linearGradient>
	<path class="st4" d="M399.7,1186.4v1263.5c0,103.9,82.8,188.9,186.7,191.6c461.5,11.9,2075.6,40.8,2514.9,34.3
		c75.5-1.1,136.7-61.5,138.9-137c8.5-293.5,22.2-999.4-28.7-1327.1c-10.7-69-69-120.6-138.8-122.8
		c-386.7-12.4-2097.7-51.6-2536.8-41.8C460.1,1048.8,399.7,1110.7,399.7,1186.4z"/>
	<linearGradient id="SVGID_4_" gradientUnits="userSpaceOnUse" x1="3442.1101" y1="989.645" x2="-2737.4573" y2="4079.4353">
		<stop  offset="0" style="stop-color:#4F52FF"/>
		<stop  offset="1" style="stop-color:#4042E2"/>
	</linearGradient>
	<path class="st5" d="M479,1180.3v1200.4c0,60.7,48.7,110.1,109.4,111l2449.7,30.3c60.2,0.9,109.5-47.5,109.7-107.7l4.1-1189.7
		c0.2-43-34.1-78.3-77.1-79.3l-2508.1-50.7C518.6,1093.5,479,1132.1,479,1180.3z"/>
	<path class="st1" d="M3166.2,2571.3L3166.2,2571.3l-2687.3-45.8c-1.9,0-3.5-1.6-3.5-3.6c0-1.9,1.7-3.4,3.6-3.4l2687.3,45.8
		c1.9,0,3.5,1.6,3.5,3.6C3169.7,2569.8,3168.1,2571.3,3166.2,2571.3z"/>
	<path class="st1" d="M1849.1,2627.2c-17.4,0-31.5-14.1-31.5-31.5c0-17.4,14.1-31.5,31.5-31.5s31.5,14.1,31.5,31.5
		C1880.6,2613.1,1866.4,2627.2,1849.1,2627.2z M1849.1,2571.3c-13.5,0-24.5,11-24.5,24.5c0,13.5,11,24.5,24.5,24.5
		c13.5,0,24.5-11,24.5-24.5C1873.5,2582.3,1862.6,2571.3,1849.1,2571.3z"/>
	<linearGradient id="SVGID_5_" gradientUnits="userSpaceOnUse" x1="1905.6" y1="3008.3635" x2="1621.9247" y2="3631.2153">
		<stop  offset="0" style="stop-color:#09005D"/>
		<stop  offset="1" style="stop-color:#1A0F91"/>
	</linearGradient>
	<path class="st6" d="M2316.9,3098.9h-869.6c-23.6,0-41.4-16.8-36.8-34.9l11.2-44.1c3.4-13.3,18-23,35.3-23.6l838.3-26.2
		c18.1-0.6,34.2,9.1,38.1,22.8l20.1,70.3C2358.8,3081.6,2340.9,3098.9,2316.9,3098.9z"/>
	<path class="st1" d="M1915.5,3009c-1.9,0-3.5-1.5-3.5-3.5c0-1.9,1.5-3.5,3.5-3.6l35.9-0.5h0.1c1.9,0,3.5,1.5,3.5,3.5
		c0,1.9-1.5,3.5-3.5,3.6L1915.5,3009L1915.5,3009z"/>
	<path class="st1" d="M1442.7,3075.3c-0.2,0-0.4,0-0.6,0c-1.9-0.3-3.2-2.1-2.9-4l5.1-32.1c2.8-17.6,17.8-30.5,35.5-30.8l381-5.6
		c2-0.1,3.5,1.5,3.6,3.5c0,1.9-1.5,3.5-3.5,3.6l-381,5.6c-14.4,0.2-26.5,10.7-28.7,24.9l-5.1,32.1
		C1445.9,3074,1444.4,3075.3,1442.7,3075.3z"/>
	<path class="st7" d="M2970.9,1200.7l-2341.1-28.8c-36.9-0.5-66.9,29.7-67.4,67.5l-15,1090.3c-0.5,37.3,28.3,68.1,64.7,69.4
		l2354.4,83.3c32.8,1.2,63.4-11.3,87-34.6c23.6-23.3,35.8-55.4,35.8-88.9V1324.3C3089.2,1256.6,3037.1,1201.5,2970.9,1200.7z"/>
</g>
<g>
	<g>
		<path class="st8" d="M611.7,1141.4h1196.8c32.6,0,58.9,33,58.3,73.3L1850,2360c-0.8,53.9-36.7,96.9-80.4,96.2l-1159.1-17.9
			c-31.9-0.5-57.6-32.6-57.6-72l0.6-1152.9C553.4,1173.6,579.5,1141.4,611.7,1141.4z"/>
		<path class="st1" d="M630.7,1175.2h1149.2c31.3,0,56.6,31.6,56,70.2l-16.2,1097.7c-0.8,51.7-35.3,92.9-77.2,92.2l-1113.1-17.2
			c-30.7-0.5-55.3-31.2-55.3-69l0.5-1105C574.7,1206,599.8,1175.2,630.7,1175.2z"/>
	</g>
	<g>
		<path class="st9" d="M1421.9,1307.5c-0.1,0-0.2,0-0.4,0l-758.9-8.5c-20.7-0.2-37.5-16.6-37.5-36.4l0-29.8c0-7.8,3.2-15.2,8.9-20.7
			c5.7-5.4,13.3-8.4,21.3-8.4H1427c8.2,0,16,3.4,21.4,9.2c5.2,5.6,7.8,12.9,7.2,20.4l-3.6,47.2
			C1450.8,1295.7,1437.6,1307.5,1421.9,1307.5z M655.3,1214.2c-5.3,0-10.3,2-14,5.5c-3.7,3.5-5.7,8.1-5.7,13.1l0,29.8
			c0,14.1,12.2,25.7,27.1,25.9l758.9,8.5c0.1,0,0.2,0,0.2,0c10.3,0,18.9-7.5,19.6-17.2l3.6-47.2c0.4-4.6-1.2-9-4.4-12.5
			c-3.5-3.7-8.4-5.9-13.7-5.9H655.3z"/>
		<path class="st10" d="M1412.6,1291.5l-736.2-6.2c-17.4-0.1-31.3-10.3-31.3-22.8l0-21.8c0-9.6,10.9-17.5,24.2-17.5h748.6
			c13.2,0,23.6,8.1,22.7,17.6l-3.5,34.6C1436.1,1284.5,1425.4,1291.6,1412.6,1291.5z"/>
		<path class="st11" d="M1664.7,1419.3H630.6c-6.9,0-12.4-6.1-12.4-13.7v-36.6c0-7.6,5.6-13.8,12.5-13.7l1034.1,10.1
			c6.8,0.1,12.3,6.2,12.3,13.7v26.5C1677.1,1413.1,1671.6,1419.3,1664.7,1419.3z"/>
		<path class="st10" d="M1746.5,1668.7l-1089-14.5c-19.4-0.3-34.9-16-34.9-35.4v-149.5c0-19.9,16.3-36,36.2-35.8l1085.8,11.6
			c21.4,0.2,38.7,17.7,38.7,39.1v148.3C1783.3,1652.6,1766.8,1668.9,1746.5,1668.7z"/>
		<path class="st11" d="M1570.7,1780H629.1c-6.2,0-11.3-6.1-11.3-13.7v-36.6c0-7.6,5.1-13.8,11.4-13.7l941.6,10.1
			c6.2,0.1,11.2,6.2,11.2,13.7v26.5C1582,1773.9,1577,1780,1570.7,1780z"/>
		<path class="st10" d="M1746.1,2051.8l-1089-15.9c-19.4-0.3-34.9-17.6-34.9-38.8v-163.7c0-21.8,16.3-39.4,36.2-39.2l1085.8,12.7
			c21.4,0.3,38.7,19.3,38.7,42.8v162.4C1782.8,2034.2,1766.3,2052.1,1746.1,2051.8z"/>
		<path class="st11" d="M1774,2169.2H633.7c-7.6,0-13.7-6.1-13.7-13.7v-36.6c0-7.6,6.2-13.8,13.8-13.7l1140.3,10.1
			c7.5,0.1,13.6,6.2,13.6,13.7v26.5C1787.7,2163.1,1781.6,2169.2,1774,2169.2z"/>
		<path class="st10" d="M1748.3,2407.3l-1089-13.8c-19.4-0.2-34.9-15.3-34.9-33.7v-142.3c0-18.9,16.3-34.3,36.2-34.1l1085.8,11
			c21.4,0.2,38.7,16.8,38.7,37.2v141.1C1785.1,2392,1768.5,2407.5,1748.3,2407.3z"/>
	</g>
</g>
<g>
	<g>
		<path class="st8" d="M2061.3,831.6h1172.9c32,0,57.7,32.6,57.2,72.4l-16.5,1132.2c-0.8,53.3-36,95.8-108.1,95.1l-1091.9-17
			c-37.9-0.6-69.7-30.3-71.2-68.2c0-1.2-0.1-2.4-0.1-3.6l0.5-1139.8C2004.1,863.4,2029.7,831.6,2061.3,831.6z"/>
		<path class="st2" d="M2087.2,862.3h1126.3c30.7,0,55.4,31,54.9,68.8l-15.8,1075.8c-0.7,50.6-34.6,91-75.7,90.4L2086,2080.4
			c-30.1-0.5-54.2-30.6-54.2-67.6l0.5-1082.9C2032.3,892.5,2056.9,862.3,2087.2,862.3z"/>
	</g>
	<g>
		<path class="st8" d="M3158.1,1079.8H2126.9c-12.6,0-22.9-10.2-22.9-22.9v-55.6c0-13.2,10.7-24,24-24h1026
			c12.9,0,23.4,10.5,23.4,23.4v59.7C3177.5,1071.2,3168.8,1079.8,3158.1,1079.8z"/>
		<path class="st12" d="M3090.6,1048.6h-393.4c-6.5,2.4-11.7-3.4-11.7-10.6v-19.3c0-7.2,5.3-13,11.7-13h393.4
			c6.5,0,11.7,5.8,11.7,13v19.3C3102.3,1045.3,3097.1,1051.1,3090.6,1048.6z"/>
		<path class="st8" d="M2875.5,1589.1c0,27-21.8,48.9-48.8,48.9l-685.1,1.4c-17.9,0-32.4-14.8-32.4-33.2v-364
			c0-18.5,14.8-33.4,32.9-33.2l701.5,11.2c17.7,0.3,31.9,15,31.9,33.2V1589.1z"/>
		<path class="st1" d="M2787.8,2037.2l-293.2-2.4c-9.9-0.1-17.9-8.2-17.8-18.1l2.4-293.6c0.1-9.7,7.9-17.6,17.6-17.8l289.5,5.5
			c12.3,0.2,22,10.3,21.9,22.6l-2.5,286.1C2805.8,2029.3,2797.7,2037.2,2787.8,2037.2z"/>
		<path class="st1" d="M2415,2037.2l-293.2-2.4c-9.9-0.1-17.9-8.2-17.8-18.1l2.4-293.6c0.1-9.7,7.9-17.6,17.6-17.8l289.5,5.5
			c12.3,0.2,22,10.3,21.9,22.6l-2.5,286.1C2433,2029.3,2424.9,2037.2,2415,2037.2z"/>
		<path class="st1" d="M3156.9,2044.1l-293.2-2.4c-9.9-0.1-17.9-8.2-17.8-18.1l2.4-293.6c0.1-9.7,7.9-17.6,17.6-17.8l289.5,5.5
			c12.3,0.2,22,10.3,21.9,22.6l-2.5,286.1C3174.9,2036.2,3166.8,2044.2,3156.9,2044.1z"/>
		<path class="st1" d="M3152.8,1655.8h-212c-13.6,0-24.6-11.1-24.6-24.8v-387.3c0-11.5,8.9-20.9,20-20.9l217.6-1.2
			c13.2,0.6,23.6,11.5,23.6,24.8V1631C3177.5,1644.7,3166.4,1655.8,3152.8,1655.8z"/>
		<g>
			<path class="st9" d="M2350.2,955.3c-19,0-34.5-15.5-34.5-34.5c0-19,15.5-34.5,34.5-34.5s34.5,15.5,34.5,34.5
				C2384.7,939.8,2369.2,955.3,2350.2,955.3z M2350.2,893.3c-15.1,0-27.4,12.3-27.4,27.4c0,15.1,12.3,27.4,27.4,27.4
				c15.1,0,27.4-12.3,27.4-27.4C2377.7,905.7,2365.3,893.3,2350.2,893.3z"/>
			<path class="st9" d="M2243.1,957.8c-19,0-34.5-15.5-34.5-34.5c0-19,15.5-34.5,34.5-34.5c19,0,34.5,15.5,34.5,34.5
				C2277.5,942.3,2262.1,957.8,2243.1,957.8z M2243.1,895.9c-15.1,0-27.4,12.3-27.4,27.4s12.3,27.4,27.4,27.4
				c15.1,0,27.4-12.3,27.4-27.4S2258.2,895.9,2243.1,895.9z"/>
			<path class="st9" d="M2140.1,957.8c-19,0-34.5-15.5-34.5-34.5c0-19,15.5-34.5,34.5-34.5c19,0,34.5,15.5,34.5,34.5
				C2174.6,942.3,2159.1,957.8,2140.1,957.8z M2140.1,895.9c-15.1,0-27.4,12.3-27.4,27.4s12.3,27.4,27.4,27.4
				c15.1,0,27.4-12.3,27.4-27.4S2155.2,895.9,2140.1,895.9z"/>
		</g>
	</g>
	<g>
		<path class="st9" d="M2508.3,1496.3c-45.6,0-82.6-37-82.6-82.5c0-45.6,37-82.6,82.5-82.6c45.6,0,82.6,37,82.6,82.5v0.1
			C2590.8,1459.3,2553.8,1496.3,2508.3,1496.3z M2508.3,1336c-42.9,0-77.8,34.8-77.8,77.7c0,42.9,34.8,77.8,77.7,77.8
			c42.9,0,77.8-34.8,77.8-77.7v-0.1C2586,1370.9,2551.1,1336,2508.3,1336z"/>
		<path class="st9" d="M2485.5,1455.2c-2.3,0-4.2-1.8-4.3-4.2l-2-72.9c-0.1-2.4,1.1-4.6,3.1-5.9c2-1.3,4.5-1.5,6.7-0.5l72,33.7
			c2.4,1.1,3.9,3.4,4,6.1c0.1,2.6-1.3,5-3.6,6.3l-63.6,33.9c-2.1,1.1-4.7,0.3-5.8-1.8c-1.1-2.1-0.3-4.7,1.8-5.8l60.6-32.3
			l-66.6-31.1l1.9,70.2c0.1,2.4-1.8,4.3-4.2,4.4C2485.6,1455.2,2485.5,1455.2,2485.5,1455.2z"/>
	</g>
</g>
<g>
	
		<linearGradient id="SVGID_6_" gradientUnits="userSpaceOnUse" x1="772.1653" y1="1631.1713" x2="1109.1157" y2="1290.7106" gradientTransform="matrix(0.9854 0.1705 -0.1705 0.9854 66.439 -38.0066)">
		<stop  offset="0" style="stop-color:#FF928E"/>
		<stop  offset="1" style="stop-color:#FE7062"/>
	</linearGradient>
	<path class="st13" d="M1571.4,878.1c111.6-170.4,340.4-232.4,482-206.6l28.4,66.3c-144.4,23.1-245.9,49.2-321.7,174.6
		c-4.1,6.8-11.9,10.4-19.8,9.1l-162.1-27.8C1571.1,892.4,1567.4,884.2,1571.4,878.1z"/>
	
		<linearGradient id="SVGID_7_" gradientUnits="userSpaceOnUse" x1="800.0601" y1="1658.78" x2="1137.0096" y2="1318.3202" gradientTransform="matrix(0.9854 0.1705 -0.1705 0.9854 66.439 -38.0066)">
		<stop  offset="0" style="stop-color:#FF928E"/>
		<stop  offset="1" style="stop-color:#FE7062"/>
	</linearGradient>
	<path class="st14" d="M2019.3,576.1l194.8,86.4c13.4,5.9,14.1,24.6,1.3,31.6l-170.7,93.2c-5.4,2.4-11.7-1.1-12.5-7l-26.1-197.1
		C2005.2,576,2013.6,571.4,2019.3,576.1z"/>
</g>
<g>
	<g>
		
			<rect x="1075.8" y="2846.7" transform="matrix(-1 -1.224647e-16 1.224647e-16 -1 2186.1948 6067.0425)" class="st1" width="34.5" height="373.6"/>
		<path class="st1" d="M941.8,3227.5h302.6v-20.6c0-1-0.8-1.9-1.9-1.9H943.9c-1.1,0-2,0.9-2,2V3227.5z"/>
		<path class="st1" d="M884.6,2832.9c0,21.7,17.8,39.5,39.5,39.5h325.3c21.7,0,39.5-17.8,39.5-39.5v-35.7
			c0-21.7-17.8-39.5-39.5-39.5H924.1c-21.7,0-39.5,17.8-39.5,39.5V2832.9z"/>
	</g>
	<g>
		<linearGradient id="SVGID_8_" gradientUnits="userSpaceOnUse" x1="1369.592" y1="3082.4639" x2="1308.6088" y2="3202.3975">
			<stop  offset="0" style="stop-color:#09005D"/>
			<stop  offset="1" style="stop-color:#1A0F91"/>
		</linearGradient>
		<path class="st15" d="M1285.5,3154.1c0,0,98.6,71.1,81.5,118.9c0,0-107.9-46.6-121-83.3c-13-36.7,2.2-52.9,2.2-52.9L1285.5,3154.1
			z"/>
		<linearGradient id="SVGID_9_" gradientUnits="userSpaceOnUse" x1="1253.6281" y1="3130.1921" x2="1314.3783" y2="3130.1921">
			<stop  offset="0" style="stop-color:#FEBBBA"/>
			<stop  offset="1" style="stop-color:#FF928E"/>
		</linearGradient>
		<path class="st16" d="M1270.7,3094.5l-16.1,46.6c-2.4,7,0,15.1,6.3,19c3.2,2,7.5,3.8,13.3,5.2c8.3,1.9,16.9-2,20.9-9.5l19.3-36.3
			L1270.7,3094.5z"/>
		<linearGradient id="SVGID_10_" gradientUnits="userSpaceOnUse" x1="1169.5604" y1="2969.4504" x2="1427.7219" y2="2607.6177">
			<stop  offset="0" style="stop-color:#09005D"/>
			<stop  offset="1" style="stop-color:#1A0F91"/>
		</linearGradient>
		<path class="st17" d="M1113.7,2674.8c0,0,202.6,35.1,289.5,115.4c86.9,80.3-79.8,336.4-79.8,336.4s-27.3-0.2-60.4-28.5
			c0,0,98.8-192.6,13.7-248.8c-95.8-63.2-206.1-77.4-206.1-77.4l41.2-90.9L1113.7,2674.8z"/>
		<linearGradient id="SVGID_11_" gradientUnits="userSpaceOnUse" x1="1334.2013" y1="3203.7251" x2="1122.7925" y2="3480.1821">
			<stop  offset="0" style="stop-color:#09005D"/>
			<stop  offset="1" style="stop-color:#1A0F91"/>
		</linearGradient>
		<path class="st18" d="M1349.9,3246.6c-21.7-10-83.1-53-93.5-54.9c-10.4-1.9-28.3,10.3-28.3,10.3s-4.4,7.9,0.3,21.6
			c14.4,17.4,46.4,50.7,89.5,63.1c31.7,9.1,53.8,0.6,67.6-9.3C1377.9,3265.7,1364.3,3253.3,1349.9,3246.6z"/>
		<linearGradient id="SVGID_12_" gradientUnits="userSpaceOnUse" x1="1228.4011" y1="3263.5996" x2="1391.7562" y2="3263.5996">
			<stop  offset="0" style="stop-color:#4F52FF"/>
			<stop  offset="1" style="stop-color:#4042E2"/>
		</linearGradient>
		<path class="st19" d="M1317.9,3286.6c-43-12.4-75-45.6-89.5-63.1c3.2,9.3,10.4,21.2,26,35.2c38.6,34.7,112.3,47.2,128,44.8
			c12.6-1.9,11.4-13.5,3.1-26.2C1371.7,3287.2,1349.5,3295.7,1317.9,3286.6z"/>
		<linearGradient id="SVGID_13_" gradientUnits="userSpaceOnUse" x1="1209.6984" y1="3186.2554" x2="1266.7139" y2="3186.2554">
			<stop  offset="0" style="stop-color:#FEBBBA"/>
			<stop  offset="1" style="stop-color:#FF928E"/>
		</linearGradient>
		<path class="st20" d="M1209.7,3171.6c0.2,6,12.5,26.5,19.6,38c3.4,5.5,9.3,8.8,15.8,8.8c4.1,0,8.8-0.3,13-1.6
			c6.4-1.8,10-8.6,8.1-15l-14-47.6L1209.7,3171.6z"/>
		<linearGradient id="SVGID_14_" gradientUnits="userSpaceOnUse" x1="1076.5087" y1="3149.7559" x2="1090.7383" y2="2665.9561">
			<stop  offset="0" style="stop-color:#09005D"/>
			<stop  offset="1" style="stop-color:#1A0F91"/>
		</linearGradient>
		<path class="st21" d="M918.7,2614c0,0-45,120.3,0,156.9c45,36.6,152.3,77.8,176.3,150.7c24,72.9,64.7,214.5,119.1,264.7
			c0,0,38.3-3.7,52.6-19c0,0-31-211.4-51.5-265.7c-17.7-47-43.8-114.8-93.8-152.7c-14.3-10.9-11.8-28-5.2-44.7l12.1-30.4L918.7,2614
			z"/>
		<linearGradient id="SVGID_15_" gradientUnits="userSpaceOnUse" x1="1404.6411" y1="1592.6617" x2="1327.42" y2="2329.7717">
			<stop  offset="0" style="stop-color:#FF928E"/>
			<stop  offset="1" style="stop-color:#FE7062"/>
		</linearGradient>
		<path class="st22" d="M1388,2519.7c-75.4,4.5-51.9-116-50.6-120.8l-114.5,80.9c0,0,6.1,64.5,101.3,98.3
			c24.1,8.6,46.1,8.9,65.6,4.7C1381.4,2558.6,1383.1,2536.9,1388,2519.7z"/>
		<linearGradient id="SVGID_16_" gradientUnits="userSpaceOnUse" x1="1539.651" y1="2185.8203" x2="1483.3326" y2="2553.1118">
			<stop  offset="0" style="stop-color:#FEBBBA"/>
			<stop  offset="1" style="stop-color:#FF928E"/>
		</linearGradient>
		<path class="st23" d="M1533.9,2483.4c-28.1-19.6-60,0-60,0c-37.6,24.6-65.4,35-85.9,36.3c-4.9,17.2-6.6,38.9,1.7,63.1
			c42.1-9.1,72.2-39.5,85.3-55.2c4.7-5.6,13.1-6.6,18.8-2.1c5.9,4.6,11.5,11,10.5,17.6c-2,13.1,13.2,17.3,14.4,12.6
			c1.1-4.8-5.2-33-5.2-33s30.5,30.7,42.4,42.4c11.9,11.8,26.9,0,26.9,0S1562,2503,1533.9,2483.4z"/>
		<linearGradient id="SVGID_17_" gradientUnits="userSpaceOnUse" x1="1231.9615" y1="1574.5737" x2="1154.7407" y2="2311.6819">
			<stop  offset="0" style="stop-color:#FF928E"/>
			<stop  offset="1" style="stop-color:#FE7062"/>
		</linearGradient>
		<path class="st24" d="M1036.2,2212.8c0,0,109.8-43.9,314,124.7c0,0,17.1,35.3-1.6,66.8c-18.6,31.4-196,184.6-220.3,269.6
			c0,0-105.7,34.3-214.9-47.1C913.4,2626.7,923,2390.3,1036.2,2212.8z"/>
		<linearGradient id="SVGID_18_" gradientUnits="userSpaceOnUse" x1="1194.1443" y1="2235.2483" x2="1326.1053" y2="2235.2483">
			<stop  offset="0" style="stop-color:#FEBBBA"/>
			<stop  offset="1" style="stop-color:#FF928E"/>
		</linearGradient>
		<path class="st25" d="M1253.2,2173.5l-54,65.5c-5.4,6.5-6.5,15.6-2.8,23.1c7.5,15.3,25.3,37.6,64.8,34.5
			c11.7-0.9,22.1-8,27.3-18.6l37.8-78.1L1253.2,2173.5z"/>
		<linearGradient id="SVGID_19_" gradientUnits="userSpaceOnUse" x1="1031.6523" y1="1553.5873" x2="954.4313" y2="2290.6963">
			<stop  offset="0" style="stop-color:#FF928E"/>
			<stop  offset="1" style="stop-color:#FE7062"/>
		</linearGradient>
		<path class="st26" d="M951.2,2493.3c-12.7-51.9,116.3-167.6,116.3-167.6l-31.3-113c0,0-278.7,185.5-207.7,334.7
			c10.2,21.4,23.7,36.4,39.4,46.4C890.3,2533.5,926.1,2505.8,951.2,2493.3z"/>
		<linearGradient id="SVGID_20_" gradientUnits="userSpaceOnUse" x1="967.3459" y1="2195.3376" x2="991.9162" y2="2314.6794">
			<stop  offset="0" style="stop-color:#E1473D"/>
			<stop  offset="1" style="stop-color:#E9605A"/>
		</linearGradient>
		<path class="st27" d="M951.1,2485.8c-1.4,0-2.6-0.9-3-2.3c-13-53.1,111.9-165.8,117.3-170.6c1.3-1.1,3.2-1,4.3,0.2
			c1.1,1.3,1,3.2-0.2,4.3c-1.3,1.1-127.6,115.1-115.4,164.6c0.4,1.6-0.6,3.3-2.2,3.7C951.6,2485.7,951.3,2485.8,951.1,2485.8z"/>
		<linearGradient id="SVGID_21_" gradientUnits="userSpaceOnUse" x1="1104.1561" y1="2531.1665" x2="598.9384" y2="3409.0862">
			<stop  offset="0" style="stop-color:#FEBBBA"/>
			<stop  offset="1" style="stop-color:#FF928E"/>
		</linearGradient>
		<path class="st28" d="M1146.7,2488.8c0,0-153,59.4-190.4,14.7c-2.5-3-4.2-6.5-5.1-10.3c-25.1,12.5-60.9,40.2-83.3,100.6
			c80.5,51.4,218.1-28.6,255.3-52.2c6.1-3.9,13.5-5.2,20.6-3.8c14.3,3,39.1,7.3,52.5,5.3c19.6-3,47.6,66,79.3,44.7
			C1275.5,2587.9,1248.4,2468,1146.7,2488.8z"/>
		<g>
			
				<linearGradient id="SVGID_22_" gradientUnits="userSpaceOnUse" x1="11766.626" y1="2168.2102" x2="11759.2812" y2="2383.6802" gradientTransform="matrix(0.8667 0.4989 -0.4989 0.8667 -8374.8066 -4673.8311)">
				<stop  offset="0" style="stop-color:#FEBBBA"/>
				<stop  offset="1" style="stop-color:#FF928E"/>
			</linearGradient>
			<path class="st29" d="M1383.7,2115c0,0-7.9,70.7-23.4,101.3c-15.4,30.6-20.1,53.6-57.9,39.8c-37.8-13.8-56.8-47.5-55.5-86.1
				c0,0,1.7-59.7,17.9-75.2C1281.1,2079.4,1383.7,2115,1383.7,2115z"/>
			
				<linearGradient id="SVGID_23_" gradientUnits="userSpaceOnUse" x1="11735.6865" y1="974.6846" x2="11882.6875" y2="1163.947" gradientTransform="matrix(0.8667 0.4989 -0.4989 0.8667 -8374.8066 -4673.8311)">
				<stop  offset="0" style="stop-color:#09005D"/>
				<stop  offset="1" style="stop-color:#1A0F91"/>
			</linearGradient>
			<path class="st30" d="M1270.9,2155.5l4.3,2.5c0,0,3.2-46.9,22.6-44.3c19.4,2.6,88.9,25.7,115,11.4c25.2-13.8,29.5-48,16.6-65.6
				c-0.8-1.1-2.4-1.3-3.6-0.6l-3,1.9c-2,1.3-4.6-0.6-4-2.9l0,0c0.5-2.2-1.8-4.1-3.8-3c-7.9,4.2-25.2,8.6-58.2-3.1
				c-46.8-16.6-84.7-15.5-102.2,13.3c-1.1,1.8-3.7,1.7-4.7-0.2c-2-3.7-6.5-7.5-16.4-5.7c-17.3,3.1-27.1,31.2-13.6,66.7
				c0.6,1.7-0.5,3.6-2.3,3.7c-6.4,0.3-17.4,3.5-5,23.4c12.6,20.3,24.1,25.4,28.7,26.7c1.3,0.4,2.6-0.2,3.2-1.4l13.3-26.9
				c0.7-1.4,2.4-1.9,3.8-1.1L1270.9,2155.5z"/>
			
				<linearGradient id="SVGID_24_" gradientUnits="userSpaceOnUse" x1="11713.458" y1="2166.4111" x2="11706.1123" y2="2381.8843" gradientTransform="matrix(0.8667 0.4989 -0.4989 0.8667 -8374.8066 -4673.8311)">
				<stop  offset="0" style="stop-color:#FEBBBA"/>
				<stop  offset="1" style="stop-color:#FF928E"/>
			</linearGradient>
			<path class="st31" d="M1268.9,2161.6c0,0,11.4-41.5-10.6-40.7c-22,0.8-14.9,45.3-2.7,54.1L1268.9,2161.6z"/>
		</g>
	</g>
	<g>
		
			<linearGradient id="SVGID_25_" gradientUnits="userSpaceOnUse" x1="12403.6719" y1="3192.3035" x2="12144.9824" y2="3263.2036" gradientTransform="matrix(-0.9988 -4.940000e-02 -4.940000e-02 0.9988 13717.0957 -55.0327)">
			<stop  offset="0" style="stop-color:#09005D"/>
			<stop  offset="1" style="stop-color:#1A0F91"/>
		</linearGradient>
		<path class="st32" d="M1225.1,2606c0.2,0,0.5,0,0.7,0l321.1-0.4c7.9,0,14.4-6.4,14.4-14.4c0-7.9-6.5-14.5-14.4-14.4l-321.1,0.4
			c-7.9,0-14.4,6.4-14.4,14.4C1211.4,2599.4,1217.5,2605.6,1225.1,2606z"/>
		
			<linearGradient id="SVGID_26_" gradientUnits="userSpaceOnUse" x1="12154.8936" y1="2353.5828" x2="11971.3418" y2="2547.5862" gradientTransform="matrix(-1 0 0 1 13675.626 0)">
			<stop  offset="0" style="stop-color:#09005D"/>
			<stop  offset="1" style="stop-color:#1A0F91"/>
		</linearGradient>
		<path class="st33" d="M1835.5,2314.5h-267.4c-19.7,0-37.7,11.4-46.1,29.2l-123.6,262.1h332.3c12.7,0,24.1-7.8,28.8-19.6
			l95.9-242.6C1860.9,2329.7,1850.6,2314.5,1835.5,2314.5z"/>
		
			<linearGradient id="SVGID_27_" gradientUnits="userSpaceOnUse" x1="12043.9277" y1="2401.8882" x2="11960.6436" y2="2527.3047" gradientTransform="matrix(-1 0 0 1 13675.626 0)">
			<stop  offset="0" style="stop-color:#53D8FF"/>
			<stop  offset="1" style="stop-color:#3840F7"/>
		</linearGradient>
		<path class="st34" d="M1647.1,2448.9c-5.8,18-1.5,35.5,9.6,39.1c11.1,3.6,24.8-8.1,30.5-26.1c5.8-18,1.5-35.5-9.6-39.1
			S1652.9,2430.9,1647.1,2448.9z"/>
	</g>
	<g>
		<g>
			<path class="st8" d="M1792.2,3294.6c1.8,0,3.6-0.3,5.3-1.1c6.8-2.9,10-10.5,7.1-17.2l-283-636.8c-2.9-6.6-10.9-9.7-17.7-6.8
				c-6.8,2.9-10,10.5-7.1,17.2l283,636.8C1782,3291.7,1786.9,3294.6,1792.2,3294.6z"/>
			<path class="st8" d="M1473.4,3294.6c5.2,0,10.2-3,12.4-7.9l283-636.8c2.9-6.6-0.2-14.3-7.1-17.2c-6.8-2.9-14.8,0.2-17.7,6.8
				l-283,636.8c-2.9,6.6,0.2,14.3,7.1,17.2C1469.8,3294.3,1471.6,3294.6,1473.4,3294.6z"/>
			<path class="st8" d="M916.3,3294.6c1.8,0,3.6-0.3,5.3-1.1c6.8-2.9,10-10.5,7.1-17.2l-283-636.8c-2.9-6.6-10.9-9.7-17.7-6.8
				c-6.8,2.9-10,10.5-7.1,17.2l283,636.8C906.1,3291.7,911,3294.6,916.3,3294.6z"/>
			<path class="st8" d="M597.5,3294.6c5.2,0,10.2-3,12.4-7.9l283-636.8c2.9-6.6-0.2-14.3-7.1-17.2c-6.8-2.9-14.8,0.2-17.7,6.8
				l-283,636.8c-2.9,6.6,0.2,14.3,7.1,17.2C593.9,3294.3,595.7,3294.6,597.5,3294.6z"/>
		</g>
		<path class="st8" d="M564.3,2619.9c-0.7-4.2,0.3-8.5,2.7-11.8c2.4-3.3,6-5.2,9.8-5.2h1287.3c5,0,9.7,2.9,12.3,7.6
			c2.7,4.7,3.1,10.6,1,15.7l-13.9,33.8c-3.2,7.7-10.1,12.7-17.7,12.7H585.6c-7.1,0-13.2-5.6-14.5-13.4L564.3,2619.9z"/>
	</g>
</g>
</svg>
