<?xml version="1.0" encoding="utf-8"?>
<!-- Generator: Adobe Illustrator 24.2.1, SVG Export Plug-In . SVG Version: 6.00 Build 0)  -->
<svg version="1.1" xmlns="http://www.w3.org/2000/svg" xmlns:xlink="http://www.w3.org/1999/xlink" x="0px" y="0px"
	 viewBox="0 0 3200 2000" style="enable-background:new 0 0 3200 2000;" xml:space="preserve">
<style type="text/css">
	.st0{fill:#759BE0;}
	.st1{fill:#AEC3FF;}
	.st2{opacity:0.7;fill:#759BE0;}
	.st3{fill:#94B0ED;}
	.st4{fill:#D2E0FF;}
	.st5{opacity:0.5;fill:#AEC3FF;}
	.st6{fill:#ED7D2B;}
	.st7{fill:#F99746;}
	.st8{fill:#E06D20;}
	.st9{fill:#2C3A64;}
	.st10{fill:#FFB27D;}
	.st11{fill:#FFFFFF;}
	.st12{fill:#2F539B;}
	.st13{fill:#233862;}
	.st14{fill:#ED985F;}
	.st15{fill:#163560;}
	.st16{fill:#143D7A;}
	.st17{fill:#ED975D;}
	.st18{fill:#2B478B;}
</style>
<g>
	<path class="st0" d="M1466.9,1074.3l-68.2,810.5c0,0-7.1,49.1,29.4,49.2c60.1,0.1,299.1,0,299.1,0s-45.2-10.2-44.7-33.2
		c0.6-27.1,79.7-834.1,79.7-834.1L1466.9,1074.3z"/>
	<path class="st1" d="M1746.6,1919.3c-11.8,0-240.1,0.8-298.6,0c-25.5-0.3-30-22.7-30.2-37.1c-0.1-6.9,0.8-12.1,0.8-12.1l1.8-21.1
		l4.5-53.7l4-47.4l5.1-61l4.3-51.4l48.4-575.9l295.3-7.7c0,0-33.3,337.7-56.8,583.6c-2.6,27.4-5.1,53.7-7.4,78.2
		c-0.8,7.8-1.5,15.5-2.2,22.9c-2.2,23.3-4.2,44.6-5.9,63.5c-0.9,9.9-1.8,19.2-2.5,27.6c-3,33.2-4.8,54.3-4.8,58.4
		c0,2.3,0.2,4.5,0.6,6.6C1707.8,1918.5,1742.2,1919.3,1746.6,1919.3z"/>
	<polygon class="st1" points="749.7,633.3 915.8,1300.2 938.5,1391.6 1015.8,1702.2 2452.5,1702.2 2167.5,633.3 	"/>
	<polygon class="st0" points="749.7,633.3 726.7,641 985.2,1725.4 1015.8,1702.2 	"/>
	<polygon class="st0" points="985.2,1725.4 2413.1,1725.4 2452.5,1702.2 1015.8,1702.2 	"/>
	
		<rect x="1486.7" y="1919.7" transform="matrix(-1 -1.224647e-16 1.224647e-16 -1 3282.4797 3854.0305)" class="st1" width="309.2" height="14.7"/>
	<polygon class="st2" points="1717.2,1725.4 1715.6,1736.6 1424.9,1795.4 1428.9,1747.9 1430.8,1725.4 	"/>
	<path class="st3" d="M1746.6,1919.3c-11.8,0-240.1,0.8-298.6,0c-25.5-0.3-30-22.7-30.2-37.1l289.4-54.4c-3,33.2-4.8,54.3-4.8,58.4
		c0,2.3,0.2,4.5,0.6,6.6C1707.8,1918.5,1742.2,1919.3,1746.6,1919.3z"/>
	<polygon class="st3" points="1647,1485.8 1015.8,1702.2 938.5,1391.6 	"/>
	<polygon class="st4" points="749.7,633.3 2167.5,633.3 2395.8,1492.4 963.7,1492.4 	"/>
	<polygon class="st5" points="806.9,663.8 1010.5,1446.4 2327.1,1446.4 2121.2,672.8 	"/>
	<rect x="1283.5" y="1132.1" class="st6" width="498" height="314.2"/>
	<rect x="1532.5" y="1132.1" class="st7" width="498" height="314.2"/>
	<polygon class="st8" points="1532.5,1178.6 1427.5,1283.5 1283.8,1283.5 1283.8,1132.1 1532.5,1132.1 	"/>
	<polygon class="st7" points="1283.5,1132.1 1171.5,1240.2 1420.7,1240.2 1532.5,1132.1 	"/>
	<polygon class="st6" points="2030.5,1143.3 1532.5,1132.1 1532.5,1171.9 1532.5,1171.9 1532.5,1178.5 1625.1,1280 2030.5,1280 
		2030.5,1178.9 2027.9,1175.9 2030.5,1175.9 	"/>
	<polygon class="st7" points="1532.5,1132.1 1631,1240.2 2122.4,1240.2 2030.5,1132.1 	"/>
	<path class="st9" d="M664.7,1092.4c0,0,3.5-37.7-38.7-37.7c0,0,12.8,3.5,19.4,10.4c0,0-26.9-15.8-56.2,8.5
		c-29.3,24.3-11.1,85.1-20,96.6c-8.9,11.6-43.6,13.9-39.3,51.2c4.2,37.4,110,84.1,103.2,115c0,0,41.4-60.9,11.8-88.7
		c0,0,14.4,13.6,15.9,29.8c0,0,3.9-31.6-16.2-41.7c-17.8-8.9-32.3-41.6-30.8-47.5C615.4,1182.5,664.7,1092.4,664.7,1092.4z"/>
	<path class="st10" d="M623.2,1273.6c0,0,31.5,130.3,62.4,156.4c18.6,15.7,73.8,51.6,73.8,51.6l-23,8.3c0,0-76.6-25.9-93.8-46.1
		c-17.2-20.2-64.1-121.3-64.1-121.3L623.2,1273.6z"/>
	<g>
		<path class="st7" d="M804.5,1529.1l-7.4-18.3c-7.9-19.7-27-32.5-48.2-32.5H612.3v86.6v369.9h564.9v-369.9H857.5
			C834.2,1564.9,813.2,1550.8,804.5,1529.1z"/>
		<g>
			<path class="st11" d="M697.5,1755.9V1723l115.4-50.6v33.6l-80.6,33.2l80.6,33.1v34.1L697.5,1755.9z"/>
			<path class="st11" d="M932.9,1633.1h30.8L858,1853.9h-30.8L932.9,1633.1z"/>
			<path class="st11" d="M1092,1723v32.9l-115.4,50.6v-33.6l80.6-33.2l-80.6-33.1v-34.1L1092,1723z"/>
		</g>
	</g>
	<path class="st12" d="M327.1,1502.5c0.3,0.5,0.6,1,0.9,1.5c6.9,12,22.7,41.3,40.1,73.5c8.2,15.2,16.9,31.1,25,46
		c14.1,25.8,26.9,48.7,34.4,60.8c7.6,12.3,13.2,21,15.5,24.5c0,0,0,0,0,0c0.7,1.1,0.8,2.3,0.7,3.6c-0.8,10.9-0.6,21.7,0.5,32.3
		c10.5,104.5,81,160.5,81,160.5l21,3.1c0,0-29.7-109.9-38.4-172c-1.5-10.5-2.1-19.1-1.6-24.6c1.5-16.2-1.3-39.9-6.8-67.2
		c-9.7-48.5-27.4-108-42.8-155.6c-1-3-30.4-109.6-30.4-109.6c-24.7,21.6-114.9,30.5-114.9,30.5S296,1447,327.1,1502.5z"/>
	<path class="st13" d="M590.2,1934.8h-87.5c0,0-2.1-13.3,2.5-23.4c4.4-9.7,10.6-10,0.8-25.2c5.6,5.7,23.4,8.1,36.1,6.4
		c1.5,2.5,10,19.4,15.2,23.1C563,1919.7,588.5,1918.3,590.2,1934.8z"/>
	<path class="st13" d="M327.1,1502.5c0.3,0.5,0.6,1,0.9,1.5c6.9,12,44.2,80.8,61.6,113c-20.2-83-6.1-166-6.1-166L327.1,1502.5z"/>
	<path class="st9" d="M652.8,1087.1c0.6-2.3-49.9,22.8-52.5,25.7c-23.7,26.3-16.9,60.6-3.4,60.9c8.7,0.2,7,14.7,7,14.7l96.9-41
		C700.7,1147.3,689.1,1079.3,652.8,1087.1z"/>
	<path class="st7" d="M620.2,1254c0,0,14.7,29.4,12.9,53.3c0,0-17.8,28.1-63.9,35.2C569.2,1342.5,608.9,1254,620.2,1254z"/>
	<path class="st12" d="M395.3,1416.4l0.3-16.4c-32.6,4.1-112.4-38.9-112.4-38.9s-34.1,22.7-38.8,87.4
		c-2.3,31.6-16.7,165.3-18.3,205.2c-0.6,14.5-0.8,24.8-0.8,28.9c0,0,0,0,0,0c0,1.3-0.6,2.4-1.4,3.4c-6.7,8.6-12.6,17.7-17.7,27.1
		c-49.7,92.5-23.7,218.2-23.7,218.2l11.5-2.9c0,0,42-130.3,69.5-186.7c4.7-9.6,8.9-17,12.4-21.3c10.3-12.5,21.2-33.9,32-59.5
		C328.4,1612.4,395.3,1416.4,395.3,1416.4z"/>
	<path class="st13" d="M252.1,1934.8h-87.5c0,0-2.1-13.3,2.5-23.4c4.4-9.7,11.2-14.1,9.6-25.9c5.6,5.7,14.6,12.1,27.3,10.4
		c1.5,2.5,10,16,15.2,19.7C224.9,1919.7,250.4,1918.3,252.1,1934.8z"/>
	<path class="st7" d="M563.3,1361.3c-11.7,2,1.9,11.3-14.2,13.1c-23,2.5-46.7,4.2-59.2,9.2c-4.5,1.8-7.6,4-8.5,6.9
		c-5.4,16.2-39.5,44.1-39.5,44.1c-152.3-6.9-162.1-74.8-162.1-74.8c98.8-96,182.9-148.3,252.4-154.8c16.9-1.6,39.7,0.5,50.4,5.3
		c24.3,10.8,37.6,43.7,37.6,43.7S608,1353.7,563.3,1361.3z"/>
	<path class="st6" d="M549.1,1374.4c-23,2.5-46.7,4.2-59.2,9.2c-5.1-75.9,30.8-133.1,30.8-133.1S544,1345.6,549.1,1374.4z"/>
	<path class="st10" d="M568.9,1237.6c0,0-57.8-3.2-68.1,33.1c-10.3,36.3,19.3,181.2,25.6,196.2c11.6,27.2,68,105,68,105l20.8-6.3
		c0,0-37.6-118.7-46-130.5C556,1416.7,586.2,1253.4,568.9,1237.6z"/>
	<path class="st10" d="M615.3,1565.6c0,0,1.1,9.2,5,14c3.9,4.8,15.2,16.3,15.4,23c0,0-0.6,3-3,2.4c-2.4-0.5-10.9-8.9-15.2-8.3
		c0,0,2.3,13.5,4.6,17.3c2.3,3.8,0.5,19.9-0.9,23.2c-1.4,3.3-18.2-17.6-25.2-26.9c-6.9-9.3-0.1-47.2-0.1-47.2L615.3,1565.6z"/>
	<path class="st7" d="M489.4,1319.3c0.2,0.9,54.7,10,88.9-7.3c0,0,28.5-89.3-12.2-85.1c-40.8,4.3-64.9,17.1-65.9,36.6
		C499.1,1283.1,489.4,1319.3,489.4,1319.3z"/>
	<path class="st10" d="M581.3,1216.5c4.3,13.6,18.8,52.4,38.9,37.5c-0.7-2.9,3.5-11.3,8.5-19.9c6.4-10.9,13.9-22.1,13.9-22.1
		l-32.7-28.7l-2-1.7c-8.6,14.9-17,22.1-24.3,27.6C581.4,1210.9,580.4,1213.8,581.3,1216.5z"/>
	<path class="st14" d="M642.6,1212c0,0-7.6,11.1-13.9,22.1c-20.3-12.5-20.4-37.7-18.8-50.8L642.6,1212z"/>
	<path class="st10" d="M643.6,1226.4c0,0-49.4-27.5-31.8-58c17.6-30.5,23.1-54.6,55.3-38.3c32.3,16.3,31.6,31.4,28.2,43
		C691.9,1184.7,656.9,1232.8,643.6,1226.4z"/>
	<path class="st9" d="M703.7,1155.3c-2.3-13.5-9.1-14.8-13.9-13.9c-18.2-30.2-48-18.4-48-18.4c-15.9,20-38.9,23.4-38.9,23.4
		s5.7,10.7,29.3,17.3c7.2,2,15.4,0.8,23.3-1.9c-16.4,9.1-33.5,12.6-33.5,12.6c31.1,2.8,60.7-25.6,63.8-28.6c1.4,4.4,4,13.6,2.4,20.4
		c-2,9.2-10.2,25.8-5.2,27.9C682.9,1194.1,707.1,1175.6,703.7,1155.3z"/>
	<path class="st10" d="M768.5,1481.6c0,0-13.8,10.3-3.4,17.1c10.4,6.8,28.9,8.6,29,4.2C794.3,1487.9,786.9,1477.3,768.5,1481.6z"/>
	<path class="st7" d="M968,914.1c-1.6-6.6,1.3-11.8,7.4-11.8c6.1,0,11.5,5.1,13.1,11.8c1.6,6.6-1.3,11.8-7.4,11.8
		C974.9,925.9,969.6,920.8,968,914.1z M983.3,914.1c-1-4.1-3.8-7.3-6.8-7.3c-3,0-4.3,3-3.3,7.3c1,4.2,3.8,7.3,6.8,7.3
		C983.1,921.3,984.3,918.3,983.3,914.1z"/>
	<path class="st3" d="M879.3,742.5l-3.8,1l-2.1-4.1l6.2-2l3.5,0l5.6,23l-5,0L879.3,742.5z"/>
	<path class="st3" d="M897.3,749c-1.6-6.6,1.3-11.8,7.4-11.8c6.1,0,11.5,5.1,13.1,11.8c1.6,6.6-1.3,11.8-7.4,11.8
		C904.2,760.8,899,755.7,897.3,749z M912.6,749c-1-4.1-3.8-7.3-6.8-7.3c-3,0-4.3,3-3.3,7.3c1,4.2,3.8,7.3,6.8,7.3
		C912.5,756.2,913.7,753.2,912.6,749z"/>
	<path class="st3" d="M1301.4,741.8l-3.8,1l-2.1-4.1l6.2-2l3.5,0l5.6,23l-5,0L1301.4,741.8z"/>
	<path class="st3" d="M1319.4,748.2c-1.6-6.6,1.3-11.8,7.4-11.8c6.1,0,11.5,5.1,13.1,11.8c1.6,6.6-1.3,11.8-7.4,11.8
		C1326.3,760,1321,754.9,1319.4,748.2z M1334.7,748.2c-1-4.1-3.8-7.3-6.8-7.3c-3,0-4.3,3-3.3,7.3c1,4.2,3.8,7.3,6.8,7.3
		C1334.5,755.5,1335.7,752.4,1334.7,748.2z"/>
	<path class="st3" d="M1350,748.2c-1.6-6.6,1.3-11.8,7.4-11.8c6.1,0,11.5,5.1,13.1,11.8c1.6,6.6-1.3,11.8-7.4,11.8
		C1356.9,760,1351.6,754.9,1350,748.2z M1365.3,748.1c-1-4.1-3.8-7.3-6.8-7.3c-3,0-4.3,3-3.3,7.3c1,4.2,3.8,7.3,6.8,7.3
		C1365.1,755.4,1366.3,752.4,1365.3,748.1z"/>
	<path class="st3" d="M1506.8,748.2c-1.6-6.6,1.3-11.8,7.4-11.8c6.1,0,11.5,5.1,13.1,11.8c1.6,6.6-1.3,11.8-7.4,11.8
		C1513.8,760,1508.5,754.9,1506.8,748.2z M1522.1,748.2c-1-4.1-3.8-7.3-6.8-7.3c-3,0-4.3,3-3.3,7.3c1,4.2,3.8,7.3,6.8,7.3
		C1522,755.5,1523.2,752.4,1522.1,748.2z"/>
	<path class="st3" d="M1537.5,748.2c-1.6-6.6,1.3-11.8,7.4-11.8c6.1,0,11.5,5.1,13.1,11.8c1.6,6.6-1.3,11.8-7.4,11.8
		C1544.4,760,1539.1,754.9,1537.5,748.2z M1552.8,748.1c-1-4.1-3.8-7.3-6.8-7.3c-3,0-4.3,3-3.3,7.3c1,4.2,3.8,7.3,6.8,7.3
		C1552.6,755.4,1553.8,752.4,1552.8,748.1z"/>
	<path class="st3" d="M1568.2,748.1c-1.6-6.6,1.3-11.8,7.4-11.8c6.1,0,11.5,5.1,13.1,11.8c1.6,6.6-1.3,11.8-7.4,11.8
		C1575.1,759.9,1569.8,754.8,1568.2,748.1z M1583.5,748.1c-1-4.1-3.8-7.3-6.8-7.3c-3,0-4.3,3-3.3,7.3c1,4.2,3.8,7.3,6.8,7.3
		C1583.3,755.4,1584.5,752.3,1583.5,748.1z"/>
	<path class="st3" d="M1781.4,747.6c-1.6-6.6,1.3-11.8,7.4-11.8c6.1,0,11.5,5.1,13.1,11.8c1.6,6.6-1.3,11.8-7.4,11.8
		S1783,754.3,1781.4,747.6z M1796.7,747.6c-1-4.1-3.8-7.3-6.8-7.3c-3,0-4.3,3-3.3,7.3c1,4.2,3.8,7.3,6.8,7.3
		C1796.5,754.8,1797.7,751.8,1796.7,747.6z"/>
	<path class="st3" d="M1810.7,747.5c-1.6-6.6,1.3-11.8,7.4-11.8c6.1,0,11.5,5.1,13.1,11.8c1.6,6.6-1.3,11.8-7.4,11.8
		C1817.6,759.3,1812.3,754.2,1810.7,747.5z M1826,747.5c-1-4.1-3.8-7.3-6.8-7.3c-3,0-4.3,3-3.3,7.3c1,4.2,3.8,7.3,6.8,7.3
		C1825.8,754.8,1827,751.7,1826,747.5z"/>
	<path class="st3" d="M1842.6,747.5c-1.6-6.6,1.3-11.8,7.4-11.8c6.1,0,11.5,5.1,13.1,11.8c1.6,6.6-1.3,11.8-7.4,11.8
		C1849.5,759.3,1844.2,754.2,1842.6,747.5z M1857.9,747.5c-1-4.1-3.8-7.3-6.8-7.3c-3,0-4.3,3-3.2,7.3c1,4.2,3.8,7.3,6.8,7.3
		C1857.7,754.7,1858.9,751.7,1857.9,747.5z"/>
	<path class="st3" d="M1894.7,747.4c-1.6-6.6,1.3-11.8,7.4-11.8c6.1,0,11.5,5.1,13.1,11.8c1.6,6.6-1.3,11.8-7.4,11.8
		C1901.7,759.2,1896.4,754.1,1894.7,747.4z M1910,747.4c-1-4.1-3.8-7.3-6.8-7.3c-3,0-4.3,3-3.3,7.3c1,4.2,3.8,7.3,6.8,7.3
		C1909.9,754.7,1911.1,751.6,1910,747.4z"/>
	<path class="st3" d="M1927.8,740.9l-3.8,1l-2.1-4.1l6.2-2l3.5,0l5.6,23l-5,0L1927.8,740.9z"/>
	<path class="st3" d="M1945.8,747.3c-1.6-6.6,1.3-11.8,7.4-11.8c6.1,0,11.5,5.1,13.1,11.8c1.6,6.6-1.3,11.8-7.4,11.8
		C1952.7,759.1,1947.4,754,1945.8,747.3z M1961.1,747.3c-1-4.1-3.8-7.3-6.8-7.3c-3,0-4.3,3-3.3,7.3c1,4.2,3.8,7.3,6.8,7.3
		C1960.9,754.6,1962.1,751.5,1961.1,747.3z"/>
	<path class="st3" d="M1996.9,747.2c-1.6-6.6,1.3-11.8,7.4-11.8c6.1,0,11.5,5.1,13.1,11.8c1.6,6.6-1.3,11.8-7.4,11.8
		C2003.8,759,1998.5,753.9,1996.9,747.2z M2012.2,747.2c-1-4.1-3.8-7.3-6.8-7.3c-3,0-4.3,3-3.3,7.3c1,4.2,3.8,7.3,6.8,7.3
		C2012,754.4,2013.2,751.4,2012.2,747.2z"/>
	<path class="st3" d="M1112.5,798.3c-1.6-6.6,1.3-11.8,7.4-11.8c6.1,0,11.5,5.1,13.1,11.8c1.6,6.6-1.3,11.8-7.4,11.8
		C1119.5,810.1,1114.2,805,1112.5,798.3z M1127.8,798.3c-1-4.1-3.8-7.3-6.8-7.3c-3,0-4.3,3-3.3,7.3c1,4.2,3.8,7.3,6.8,7.3
		C1127.7,805.6,1128.9,802.5,1127.8,798.3z"/>
	<path class="st3" d="M1143.2,798.3c-1.6-6.6,1.3-11.8,7.4-11.8c6.1,0,11.5,5.1,13.1,11.8c1.6,6.6-1.3,11.8-7.4,11.8
		C1150.1,810.1,1144.8,805,1143.2,798.3z M1158.5,798.3c-1-4.1-3.8-7.3-6.8-7.3c-3,0-4.3,3-3.3,7.3c1,4.2,3.8,7.3,6.8,7.3
		C1158.3,805.5,1159.5,802.5,1158.5,798.3z"/>
	<path class="st3" d="M1906.8,797.1c-1.6-6.6,1.3-11.8,7.4-11.8c6.1,0,11.5,5.1,13.1,11.8c1.6,6.6-1.3,11.8-7.4,11.8
		S1908.4,803.8,1906.8,797.1z M1922.1,797.1c-1-4.1-3.8-7.3-6.8-7.3c-3,0-4.3,3-3.3,7.3c1,4.2,3.8,7.3,6.8,7.3
		C1921.9,804.4,1923.1,801.3,1922.1,797.1z"/>
	<path class="st3" d="M1939.8,790.6l-3.8,1l-2.1-4.1l6.2-2l3.5,0l5.6,23l-5,0L1939.8,790.6z"/>
	<path class="st3" d="M1957.8,797c-1.6-6.6,1.3-11.8,7.4-11.8c6.1,0,11.5,5.1,13.1,11.8c1.6,6.6-1.3,11.8-7.4,11.8
		C1964.7,808.8,1959.4,803.7,1957.8,797z M1973.1,797c-1-4.1-3.8-7.3-6.8-7.3c-3,0-4.3,3-3.3,7.3c1,4.2,3.8,7.3,6.8,7.3
		C1972.9,804.3,1974.1,801.2,1973.1,797z"/>
	<path class="st3" d="M2070.2,796.8c-1.6-6.6,1.3-11.8,7.4-11.8c6.1,0,11.5,5.1,13.1,11.8c1.6,6.6-1.3,11.8-7.4,11.8
		C2077.1,808.6,2071.8,803.5,2070.2,796.8z M2085.5,796.8c-1-4.1-3.8-7.3-6.8-7.3c-3,0-4.3,3-3.3,7.3c1,4.2,3.8,7.3,6.8,7.3
		S2086.5,801,2085.5,796.8z"/>
	<path class="st3" d="M2103.2,790.2l-3.8,1l-2.1-4.1l6.2-2l3.5,0l5.6,23l-5,0L2103.2,790.2z"/>
	<path class="st3" d="M1086.7,1066.7c-1.6-6.6,1.3-11.8,7.4-11.8c6.1,0,11.5,5.1,13.1,11.8c1.6,6.6-1.3,11.8-7.4,11.8
		C1093.7,1078.4,1088.4,1073.3,1086.7,1066.7z M1102,1066.6c-1-4.1-3.8-7.3-6.8-7.3c-3,0-4.3,3-3.3,7.3c1,4.2,3.8,7.3,6.8,7.3
		C1101.9,1073.9,1103.1,1070.8,1102,1066.6z"/>
	<path class="st3" d="M1117.4,1066.6c-1.6-6.6,1.3-11.8,7.4-11.8c6.1,0,11.5,5.1,13.1,11.8c1.6,6.6-1.3,11.8-7.4,11.8
		C1124.3,1078.4,1119,1073.3,1117.4,1066.6z M1132.7,1066.6c-1-4.1-3.8-7.3-6.8-7.3c-3,0-4.3,3-3.3,7.3c1,4.2,3.8,7.3,6.8,7.3
		C1132.5,1073.8,1133.7,1070.8,1132.7,1066.6z"/>
	<path class="st3" d="M1150.4,1060.1l-3.8,1l-2.1-4.1l6.2-2l3.5,0l5.6,23l-5,0L1150.4,1060.1z"/>
	<path class="st3" d="M1199.1,1066.5c-1.6-6.6,1.3-11.8,7.4-11.8c6.1,0,11.5,5.1,13.1,11.8c1.6,6.6-1.3,11.8-7.4,11.8
		C1206,1078.3,1200.7,1073.1,1199.1,1066.5z M1214.4,1066.4c-1-4.1-3.8-7.3-6.8-7.3c-3,0-4.3,3-3.3,7.3c1,4.2,3.8,7.3,6.8,7.3
		C1214.2,1073.7,1215.4,1070.6,1214.4,1066.4z"/>
	<path class="st3" d="M1229.8,1066.4c-1.6-6.6,1.3-11.8,7.4-11.8c6.1,0,11.5,5.1,13.1,11.8c1.6,6.6-1.3,11.8-7.4,11.8
		C1236.7,1078.2,1231.4,1073.1,1229.8,1066.4z M1245.1,1066.4c-1-4.1-3.8-7.3-6.8-7.3c-3,0-4.3,3-3.3,7.3c1,4.2,3.8,7.3,6.8,7.3
		C1244.9,1073.7,1246.1,1070.6,1245.1,1066.4z"/>
	<path class="st3" d="M1260.4,1066.4c-1.6-6.6,1.3-11.8,7.4-11.8c6.1,0,11.5,5.1,13.1,11.8c1.6,6.6-1.3,11.8-7.4,11.8
		C1267.3,1078.2,1262,1073,1260.4,1066.4z M1275.7,1066.3c-1-4.1-3.8-7.3-6.8-7.3c-3,0-4.3,3-3.3,7.3c1,4.2,3.8,7.3,6.8,7.3
		C1275.5,1073.6,1276.7,1070.5,1275.7,1066.3z"/>
	<path class="st3" d="M1643.2,1066.7c-1.6-6.6,1.3-11.8,7.4-11.8c6.1,0,11.5,5.1,13.1,11.8c1.6,6.6-1.3,11.8-7.4,11.8
		C1650.1,1078.4,1644.9,1073.3,1643.2,1066.7z M1658.5,1066.6c-1-4.1-3.8-7.3-6.8-7.3c-3,0-4.3,3-3.3,7.3c1,4.2,3.8,7.3,6.8,7.3
		C1658.3,1073.9,1659.6,1070.8,1658.5,1066.6z"/>
	<path class="st3" d="M1673.9,1066.6c-1.6-6.6,1.3-11.8,7.4-11.8c6.1,0,11.5,5.1,13.1,11.8c1.6,6.6-1.3,11.8-7.4,11.8
		C1680.8,1078.4,1675.5,1073.3,1673.9,1066.6z M1689.2,1066.6c-1-4.1-3.8-7.3-6.8-7.3c-3,0-4.3,3-3.3,7.3c1,4.2,3.8,7.3,6.8,7.3
		C1689,1073.8,1690.2,1070.8,1689.2,1066.6z"/>
	<path class="st3" d="M1706.9,1060.1l-3.8,1l-2.1-4.1l6.2-2l3.5,0l5.6,23l-5,0L1706.9,1060.1z"/>
	<path class="st3" d="M1848.8,1066.7c-1.6-6.6,1.3-11.8,7.4-11.8c6.1,0,11.5,5.1,13.1,11.8c1.6,6.6-1.3,11.8-7.4,11.8
		C1855.7,1078.4,1850.4,1073.3,1848.8,1066.7z M1864.1,1066.6c-1-4.1-3.8-7.3-6.8-7.3c-3,0-4.3,3-3.3,7.3c1,4.2,3.8,7.3,6.8,7.3
		C1863.9,1073.9,1865.1,1070.8,1864.1,1066.6z"/>
	<path class="st3" d="M1879.5,1066.6c-1.6-6.6,1.3-11.8,7.4-11.8c6.1,0,11.5,5.1,13.1,11.8c1.6,6.6-1.3,11.8-7.4,11.8
		C1886.4,1078.4,1881.1,1073.3,1879.5,1066.6z M1894.8,1066.6c-1-4.1-3.8-7.3-6.8-7.3c-3,0-4.3,3-3.2,7.3c1,4.2,3.8,7.3,6.8,7.3
		C1894.6,1073.8,1895.8,1070.8,1894.8,1066.6z"/>
	<path class="st3" d="M1912.5,1060.1l-3.8,1l-2.1-4.1l6.2-2l3.5,0l5.6,23l-5,0L1912.5,1060.1z"/>
	<path class="st3" d="M1755.6,1066.5c-1.6-6.6,1.3-11.8,7.4-11.8c6.1,0,11.5,5.1,13.1,11.8c1.6,6.6-1.3,11.8-7.4,11.8
		C1762.5,1078.3,1757.2,1073.1,1755.6,1066.5z M1770.9,1066.4c-1-4.1-3.8-7.3-6.8-7.3c-3,0-4.3,3-3.3,7.3c1,4.2,3.8,7.3,6.8,7.3
		C1770.7,1073.7,1771.9,1070.6,1770.9,1066.4z"/>
	<path class="st3" d="M1786.2,1066.4c-1.6-6.6,1.3-11.8,7.4-11.8c6.1,0,11.5,5.1,13.1,11.8c1.6,6.6-1.3,11.8-7.4,11.8
		C1793.2,1078.2,1787.9,1073.1,1786.2,1066.4z M1801.5,1066.4c-1-4.1-3.8-7.3-6.8-7.3c-3,0-4.3,3-3.3,7.3c1,4.2,3.8,7.3,6.8,7.3
		C1801.4,1073.7,1802.6,1070.6,1801.5,1066.4z"/>
	<path class="st3" d="M1816.9,1066.4c-1.6-6.6,1.3-11.8,7.4-11.8c6.1,0,11.5,5.1,13.1,11.8c1.6,6.6-1.3,11.8-7.4,11.8
		C1823.8,1078.2,1818.5,1073,1816.9,1066.4z M1832.2,1066.3c-1-4.1-3.8-7.3-6.8-7.3c-3,0-4.3,3-3.2,7.3c1,4.2,3.8,7.3,6.8,7.3
		C1832,1073.6,1833.2,1070.5,1832.2,1066.3z"/>
	<path class="st3" d="M1593.8,960.8c-1.6-6.6,1.3-11.8,7.4-11.8c6.1,0,11.5,5.1,13.1,11.8c1.6,6.6-1.3,11.8-7.4,11.8
		C1600.7,972.6,1595.4,967.4,1593.8,960.8z M1609.1,960.7c-1-4.1-3.8-7.3-6.8-7.3s-4.3,3-3.3,7.3c1,4.2,3.8,7.3,6.8,7.3
		C1608.9,968,1610.1,964.9,1609.1,960.7z"/>
	<path class="st3" d="M1624.5,960.7c-1.6-6.6,1.3-11.8,7.4-11.8c6.1,0,11.5,5.1,13.1,11.8c1.6,6.6-1.3,11.8-7.4,11.8
		C1631.4,972.5,1626.1,967.4,1624.5,960.7z M1639.8,960.7c-1-4.1-3.8-7.3-6.8-7.3c-3,0-4.3,3-3.2,7.3c1,4.2,3.8,7.3,6.8,7.3
		C1639.6,968,1640.8,964.9,1639.8,960.7z"/>
	<path class="st3" d="M1657.5,954.2l-3.8,1l-2.1-4.1l6.2-2l3.5,0l5.6,23l-5,0L1657.5,954.2z"/>
	<path class="st3" d="M1500.6,960.6c-1.6-6.6,1.3-11.8,7.4-11.8c6.1,0,11.5,5.1,13.1,11.8c1.6,6.6-1.3,11.8-7.4,11.8
		C1507.5,972.4,1502.2,967.2,1500.6,960.6z M1515.9,960.5c-1-4.1-3.8-7.3-6.8-7.3c-3,0-4.3,3-3.3,7.3c1,4.2,3.8,7.3,6.8,7.3
		C1515.7,967.8,1516.9,964.7,1515.9,960.5z"/>
	<path class="st3" d="M1531.2,960.5c-1.6-6.6,1.3-11.8,7.4-11.8c6.1,0,11.5,5.1,13.1,11.8c1.6,6.6-1.3,11.8-7.4,11.8
		C1538.2,972.3,1532.9,967.2,1531.2,960.5z M1546.5,960.5c-1-4.1-3.8-7.3-6.8-7.3c-3,0-4.3,3-3.3,7.3c1,4.2,3.8,7.3,6.8,7.3
		C1546.4,967.8,1547.6,964.7,1546.5,960.5z"/>
	<path class="st3" d="M1561.9,960.5c-1.6-6.6,1.3-11.8,7.4-11.8c6.1,0,11.5,5.1,13.1,11.8c1.6,6.6-1.3,11.8-7.4,11.8
		C1568.8,972.3,1563.5,967.1,1561.9,960.5z M1577.2,960.4c-1-4.1-3.8-7.3-6.8-7.3c-3,0-4.3,3-3.2,7.3c1,4.2,3.8,7.3,6.8,7.3
		C1577,967.7,1578.2,964.6,1577.2,960.4z"/>
	<path class="st3" d="M1365.3,1065.8c-1.6-6.6,1.3-11.8,7.4-11.8c6.1,0,11.5,5.1,13.1,11.8c1.6,6.6-1.3,11.8-7.4,11.8
		C1372.2,1077.6,1366.9,1072.5,1365.3,1065.8z M1380.6,1065.8c-1-4.1-3.8-7.3-6.8-7.3c-3,0-4.3,3-3.3,7.3c1,4.2,3.8,7.3,6.8,7.3
		C1380.4,1073.1,1381.6,1070,1380.6,1065.8z"/>
	<path class="st3" d="M1398.3,1059.3l-3.8,1l-2.1-4.1l6.2-2l3.5,0l5.6,23l-5,0L1398.3,1059.3z"/>
	<path class="st3" d="M1416.3,1065.8c-1.6-6.6,1.3-11.8,7.4-11.8c6.1,0,11.5,5.1,13.1,11.8c1.6,6.6-1.3,11.8-7.4,11.8
		C1423.2,1077.6,1417.9,1072.4,1416.3,1065.8z M1431.6,1065.7c-1-4.1-3.8-7.3-6.8-7.3c-3,0-4.3,3-3.3,7.3c1,4.2,3.8,7.3,6.8,7.3
		C1431.4,1073,1432.6,1069.9,1431.6,1065.7z"/>
	<path class="st3" d="M2022.8,1065.1c-1.6-6.6,1.3-11.8,7.4-11.8c6.1,0,11.5,5.1,13.1,11.8c1.6,6.6-1.3,11.8-7.4,11.8
		C2029.7,1076.9,2024.4,1071.8,2022.8,1065.1z M2038.1,1065.1c-1-4.1-3.8-7.3-6.8-7.3c-3,0-4.3,3-3.3,7.3c1,4.2,3.8,7.3,6.8,7.3
		C2037.9,1072.4,2039.1,1069.3,2038.1,1065.1z"/>
	<path class="st3" d="M2055.8,1058.6l-3.8,1l-2-4.1l6.2-2l3.5,0l5.6,23l-5,0L2055.8,1058.6z"/>
	<path class="st3" d="M2073.8,1065c-1.6-6.6,1.3-11.8,7.4-11.8c6.1,0,11.5,5.1,13.1,11.8c1.6,6.6-1.3,11.8-7.4,11.8
		C2080.7,1076.8,2075.4,1071.7,2073.8,1065z M2089.1,1065c-1-4.1-3.8-7.3-6.8-7.3c-3,0-4.3,3-3.3,7.3c1,4.2,3.8,7.3,6.8,7.3
		C2088.9,1072.3,2090.1,1069.2,2089.1,1065z"/>
	<path class="st3" d="M905.4,850l-3.8,1l-2.1-4.1l6.2-2l3.5,0l5.6,23l-5,0L905.4,850z"/>
	<path class="st3" d="M923.3,856.4c-1.6-6.6,1.3-11.8,7.4-11.8c6.1,0,11.5,5.1,13.1,11.8c1.6,6.6-1.3,11.8-7.4,11.8
		C930.3,868.2,925,863.1,923.3,856.4z M938.6,856.4c-1-4.1-3.8-7.3-6.8-7.3c-3,0-4.3,3-3.3,7.3c1,4.2,3.8,7.3,6.8,7.3
		C938.5,863.7,939.7,860.6,938.6,856.4z"/>
	<path class="st3" d="M1097,856.1c-1.6-6.6,1.3-11.8,7.4-11.8c6.1,0,11.5,5.1,13.1,11.8c1.6,6.6-1.3,11.8-7.4,11.8
		C1103.9,867.9,1098.6,862.8,1097,856.1z M1112.3,856.1c-1-4.1-3.8-7.3-6.8-7.3c-3,0-4.3,3-3.3,7.3c1,4.2,3.8,7.3,6.8,7.3
		C1112.1,863.4,1113.3,860.3,1112.3,856.1z"/>
	<path class="st3" d="M1127.7,856.1c-1.6-6.6,1.3-11.8,7.4-11.8c6.1,0,11.5,5.1,13.1,11.8c1.6,6.6-1.3,11.8-7.4,11.8
		C1134.6,867.9,1129.3,862.8,1127.7,856.1z M1143,856c-1-4.1-3.8-7.3-6.8-7.3c-3,0-4.3,3-3.3,7.3c1,4.2,3.8,7.3,6.8,7.3
		C1142.8,863.3,1144,860.3,1143,856z"/>
	<path class="st3" d="M1158.3,856c-1.6-6.6,1.3-11.8,7.4-11.8c6.1,0,11.5,5.1,13.1,11.8c1.6,6.6-1.3,11.8-7.4,11.8
		C1165.3,867.8,1160,862.7,1158.3,856z M1173.6,856c-1-4.1-3.8-7.3-6.8-7.3c-3,0-4.3,3-3.3,7.3c1,4.2,3.8,7.3,6.8,7.3
		C1173.5,863.3,1174.7,860.2,1173.6,856z"/>
	<path class="st3" d="M1191.4,849.5l-3.8,1l-2.1-4.1l6.2-2l3.5,0l5.6,23l-5,0L1191.4,849.5z"/>
	<path class="st3" d="M1211.9,849.4l-3.8,1l-2.1-4.1l6.2-2l3.5,0l5.6,23l-5,0L1211.9,849.4z"/>
	<path class="st3" d="M1229.9,855.9c-1.6-6.6,1.3-11.8,7.4-11.8c6.1,0,11.5,5.1,13.1,11.8c1.6,6.6-1.3,11.8-7.4,11.8
		C1236.8,867.7,1231.5,862.6,1229.9,855.9z M1245.2,855.9c-1-4.1-3.8-7.3-6.8-7.3c-3,0-4.3,3-3.3,7.3c1,4.2,3.8,7.3,6.8,7.3
		C1245,863.1,1246.2,860.1,1245.2,855.9z"/>
	<path class="st7" d="M2022.9,854.6c-1.6-6.6,1.3-11.8,7.4-11.8c6.1,0,11.5,5.1,13.1,11.8c1.6,6.6-1.3,11.8-7.4,11.8
		C2029.8,866.4,2024.5,861.3,2022.9,854.6z M2038.2,854.6c-1-4.1-3.8-7.3-6.8-7.3c-3,0-4.3,3-3.3,7.3c1,4.2,3.8,7.3,6.8,7.3
		C2038,861.9,2039.2,858.8,2038.2,854.6z"/>
	<path class="st7" d="M2053.5,854.6c-1.6-6.6,1.3-11.8,7.4-11.8c6.1,0,11.5,5.1,13.1,11.8c1.6,6.6-1.3,11.8-7.4,11.8
		C2060.4,866.4,2055.2,861.2,2053.5,854.6z M2068.8,854.5c-1-4.1-3.8-7.3-6.8-7.3c-3,0-4.3,3-3.3,7.3c1,4.2,3.8,7.3,6.8,7.3
		C2068.6,861.8,2069.8,858.7,2068.8,854.5z"/>
	<path class="st3" d="M2084.2,854.5c-1.6-6.6,1.3-11.8,7.4-11.8c6.1,0,11.5,5.1,13.1,11.8c1.6,6.6-1.3,11.8-7.4,11.8
		C2091.1,866.3,2085.8,861.2,2084.2,854.5z M2099.5,854.5c-1-4.1-3.8-7.3-6.8-7.3c-3,0-4.3,3-3.3,7.3c1,4.2,3.8,7.3,6.8,7.3
		C2099.3,861.8,2100.5,858.7,2099.5,854.5z"/>
	<path class="st3" d="M2117.2,848l-3.8,1l-2.1-4.1l6.2-2l3.5,0l5.6,23l-5,0L2117.2,848z"/>
	<path class="st3" d="M919.3,907.7l-3.8,1l-2-4.1l6.2-2l3.5,0l5.6,23l-5,0L919.3,907.7z"/>
	<path class="st3" d="M937.3,914.1c-1.6-6.6,1.3-11.8,7.4-11.8c6.1,0,11.5,5.1,13.1,11.8c1.6,6.6-1.3,11.8-7.4,11.8
		C944.2,925.9,938.9,920.8,937.3,914.1z M952.6,914.1c-1-4.1-3.8-7.3-6.8-7.3c-3,0-4.3,3-3.3,7.3c1,4.2,3.8,7.3,6.8,7.3
		C952.4,921.4,953.6,918.3,952.6,914.1z"/>
	<path class="st3" d="M1080.3,913.9c-1.6-6.6,1.3-11.8,7.4-11.8c6.1,0,11.5,5.1,13.1,11.8c1.6,6.6-1.3,11.8-7.4,11.8
		C1087.2,925.7,1081.9,920.6,1080.3,913.9z M1095.6,913.9c-1-4.1-3.8-7.3-6.8-7.3c-3,0-4.3,3-3.3,7.3c1,4.2,3.8,7.3,6.8,7.3
		C1095.4,921.2,1096.6,918.1,1095.6,913.9z"/>
	<path class="st3" d="M1111,913.9c-1.6-6.6,1.3-11.8,7.4-11.8c6.1,0,11.5,5.1,13.1,11.8c1.6,6.6-1.3,11.8-7.4,11.8
		C1117.9,925.7,1112.6,920.5,1111,913.9z M1126.3,913.8c-1-4.1-3.8-7.3-6.8-7.3c-3,0-4.3,3-3.3,7.3c1,4.2,3.8,7.3,6.8,7.3
		C1126.1,921.1,1127.3,918,1126.3,913.8z"/>
	<path class="st7" d="M994.7,1025.6c-1.6-6.6,1.3-11.8,7.4-11.8c6.1,0,11.5,5.1,13.1,11.8c1.6,6.6-1.3,11.8-7.4,11.8
		C1001.6,1037.4,996.3,1032.3,994.7,1025.6z M1010,1025.6c-1-4.1-3.8-7.3-6.8-7.3c-3,0-4.3,3-3.3,7.3c1,4.2,3.8,7.3,6.8,7.3
		C1009.8,1032.9,1011,1029.8,1010,1025.6z"/>
	<path class="st7" d="M1027.7,1019.1l-3.8,1l-2.1-4.1l6.2-2l3.5,0l5.6,23l-5,0L1027.7,1019.1z"/>
	<path class="st3" d="M932.1,961.5l-3.8,1l-2.1-4.1l6.2-2l3.5,0l5.6,23l-5,0L932.1,961.5z"/>
	<path class="st3" d="M950.1,967.9c-1.6-6.6,1.3-11.8,7.4-11.8c6.1,0,11.5,5.1,13.1,11.8c1.6,6.6-1.3,11.8-7.4,11.8
		C957,979.7,951.7,974.6,950.1,967.9z M965.4,967.9c-1-4.1-3.8-7.3-6.8-7.3c-3,0-4.3,3-3.3,7.3c1,4.2,3.8,7.3,6.8,7.3
		C965.2,975.2,966.4,972.1,965.4,967.9z"/>
	<path class="st3" d="M980.7,967.9c-1.6-6.6,1.3-11.8,7.4-11.8c6.1,0,11.5,5.1,13.1,11.8c1.6,6.6-1.3,11.8-7.4,11.8
		C987.6,979.7,982.3,974.6,980.7,967.9z M996,967.9c-1-4.1-3.8-7.3-6.8-7.3c-3,0-4.3,3-3.3,7.3c1,4.2,3.8,7.3,6.8,7.3
		C995.8,975.1,997,972.1,996,967.9z"/>
	<path class="st3" d="M1013.7,961.3l-3.8,1l-2.1-4.1l6.2-2l3.5,0l5.6,23l-5,0L1013.7,961.3z"/>
	<path class="st3" d="M1031.7,967.8c-1.6-6.6,1.3-11.8,7.4-11.8c6.1,0,11.5,5.1,13.1,11.8c1.6,6.6-1.3,11.8-7.4,11.8
		C1038.6,979.6,1033.3,974.5,1031.7,967.8z M1047,967.8c-1-4.1-3.8-7.3-6.8-7.3c-3,0-4.3,3-3.3,7.3c1,4.2,3.8,7.3,6.8,7.3
		C1046.8,975,1048,972,1047,967.8z"/>
	<path class="st3" d="M1062.4,967.7c-1.6-6.6,1.3-11.8,7.4-11.8c6.1,0,11.5,5.1,13.1,11.8c1.6,6.6-1.3,11.8-7.4,11.8
		C1069.3,979.5,1064,974.4,1062.4,967.7z M1077.7,967.7c-1-4.1-3.8-7.3-6.8-7.3c-3,0-4.3,3-3.3,7.3c1,4.2,3.8,7.3,6.8,7.3
		C1077.5,975,1078.7,971.9,1077.7,967.7z"/>
	<path class="st3" d="M1093.1,967.7c-1.6-6.6,1.3-11.8,7.4-11.8c6.1,0,11.5,5.1,13.1,11.8c1.6,6.6-1.3,11.8-7.4,11.8
		C1100,979.5,1094.7,974.4,1093.1,967.7z M1108.4,967.7c-1-4.1-3.8-7.3-6.8-7.3c-3,0-4.3,3-3.3,7.3c1,4.2,3.8,7.3,6.8,7.3
		C1108.2,974.9,1109.4,971.9,1108.4,967.7z"/>
	<path class="st3" d="M1123.7,967.6c-1.6-6.6,1.3-11.8,7.4-11.8c6.1,0,11.5,5.1,13.1,11.8c1.6,6.6-1.3,11.8-7.4,11.8
		C1130.6,979.4,1125.3,974.3,1123.7,967.6z M1139,967.6c-1-4.1-3.8-7.3-6.8-7.3c-3,0-4.3,3-3.3,7.3c1,4.2,3.8,7.3,6.8,7.3
		C1138.8,974.9,1140,971.8,1139,967.6z"/>
	<path class="st3" d="M1154.4,967.6c-1.6-6.6,1.3-11.8,7.4-11.8c6.1,0,11.5,5.1,13.1,11.8c1.6,6.6-1.3,11.8-7.4,11.8
		C1161.3,979.4,1156,974.3,1154.4,967.6z M1169.7,967.6c-1-4.1-3.8-7.3-6.8-7.3c-3,0-4.3,3-3.3,7.3c1,4.2,3.8,7.3,6.8,7.3
		C1169.5,974.8,1170.7,971.8,1169.7,967.6z"/>
	<path class="st3" d="M1185,967.5c-1.6-6.6,1.3-11.8,7.4-11.8c6.1,0,11.5,5.1,13.1,11.8c1.6,6.6-1.3,11.8-7.4,11.8
		C1192,979.3,1186.7,974.2,1185,967.5z M1200.3,967.5c-1-4.1-3.8-7.3-6.8-7.3c-3,0-4.3,3-3.3,7.3c1,4.2,3.8,7.3,6.8,7.3
		C1200.2,974.8,1201.4,971.7,1200.3,967.5z"/>
	<path class="st3" d="M1218.1,961l-3.8,1l-2.1-4.1l6.2-2l3.5,0l5.6,23l-5,0L1218.1,961z"/>
	<path class="st3" d="M1238.6,961l-3.8,1l-2.1-4.1l6.2-2l3.5,0l5.6,23l-5,0L1238.6,961z"/>
	<path class="st3" d="M1256.6,967.4c-1.6-6.6,1.3-11.8,7.4-11.8c6.1,0,11.5,5.1,13.1,11.8c1.6,6.6-1.3,11.8-7.4,11.8
		C1263.5,979.2,1258.2,974.1,1256.6,967.4z M1271.9,967.4c-1-4.1-3.8-7.3-6.8-7.3c-3,0-4.3,3-3.3,7.3c1,4.2,3.8,7.3,6.8,7.3
		C1271.7,974.7,1272.9,971.6,1271.9,967.4z"/>
	<path class="st3" d="M1435.6,856.1c-1.6-6.6,1.3-11.8,7.4-11.8c6.1,0,11.5,5.1,13.1,11.8c1.6,6.6-1.3,11.8-7.4,11.8
		C1442.6,867.9,1437.3,862.8,1435.6,856.1z M1450.9,856.1c-1-4.1-3.8-7.3-6.8-7.3c-3,0-4.3,3-3.3,7.3c1,4.2,3.8,7.3,6.8,7.3
		C1450.8,863.3,1452,860.3,1450.9,856.1z"/>
	<path class="st3" d="M1468.7,849.5l-3.8,1l-2.1-4.1l6.2-2l3.5,0l5.6,23l-5,0L1468.7,849.5z"/>
	<path class="st3" d="M1486.7,856c-1.6-6.6,1.3-11.8,7.4-11.8c6.1,0,11.5,5.1,13.1,11.8c1.6,6.6-1.3,11.8-7.4,11.8
		C1493.6,867.8,1488.3,862.7,1486.7,856z M1502,856c-1-4.1-3.8-7.3-6.8-7.3c-3,0-4.3,3-3.3,7.3c1,4.2,3.8,7.3,6.8,7.3
		C1501.8,863.3,1503,860.2,1502,856z"/>
	<path class="st3" d="M1517.3,856c-1.6-6.6,1.3-11.8,7.4-11.8c6.1,0,11.5,5.1,13.1,11.8c1.6,6.6-1.3,11.8-7.4,11.8
		C1524.2,867.8,1518.9,862.6,1517.3,856z M1532.6,855.9c-1-4.1-3.8-7.3-6.8-7.3c-3,0-4.3,3-3.3,7.3c1,4.2,3.8,7.3,6.8,7.3
		C1532.4,863.2,1533.6,860.1,1532.6,855.9z"/>
	<path class="st3" d="M1548,855.9c-1.6-6.6,1.3-11.8,7.4-11.8c6.1,0,11.5,5.1,13.1,11.8c1.6,6.6-1.3,11.8-7.4,11.8
		C1554.9,867.7,1549.6,862.6,1548,855.9z M1563.3,855.9c-1-4.1-3.8-7.3-6.8-7.3c-3,0-4.3,3-3.3,7.3c1,4.2,3.8,7.3,6.8,7.3
		C1563.1,863.2,1564.3,860.1,1563.3,855.9z"/>
	<path class="st3" d="M1578.6,855.9c-1.6-6.6,1.3-11.8,7.4-11.8c6.1,0,11.5,5.1,13.1,11.8c1.6,6.6-1.3,11.8-7.4,11.8
		C1585.6,867.6,1580.3,862.5,1578.6,855.9z M1593.9,855.8c-1-4.1-3.8-7.3-6.8-7.3c-3,0-4.3,3-3.3,7.3c1,4.2,3.8,7.3,6.8,7.3
		C1593.8,863.1,1595,860,1593.9,855.8z"/>
	<path class="st3" d="M1609.3,855.8c-1.6-6.6,1.3-11.8,7.4-11.8c6.1,0,11.5,5.1,13.1,11.8c1.6,6.6-1.3,11.8-7.4,11.8
		C1616.2,867.6,1610.9,862.5,1609.3,855.8z M1624.6,855.8c-1-4.1-3.8-7.3-6.8-7.3c-3,0-4.3,3-3.3,7.3c1,4.2,3.8,7.3,6.8,7.3
		C1624.4,863,1625.6,860,1624.6,855.8z"/>
	<path class="st3" d="M1640,855.7c-1.6-6.6,1.3-11.8,7.4-11.8c6.1,0,11.5,5.1,13.1,11.8c1.6,6.6-1.3,11.8-7.4,11.8
		C1646.9,867.5,1641.6,862.4,1640,855.7z M1655.3,855.7c-1-4.1-3.8-7.3-6.8-7.3c-3,0-4.3,3-3.3,7.3c1,4.2,3.8,7.3,6.8,7.3
		C1655.1,863,1656.3,859.9,1655.3,855.7z"/>
	<path class="st3" d="M1673,849.2l-3.8,1l-2.1-4.1l6.2-2l3.5,0l5.6,23l-5,0L1673,849.2z"/>
	<path class="st3" d="M1693.5,849.2l-3.8,1l-2.1-4.1l6.2-2l3.5,0l5.6,23l-5,0L1693.5,849.2z"/>
	<path class="st3" d="M1711.5,855.6c-1.6-6.6,1.3-11.8,7.4-11.8c6.1,0,11.5,5.1,13.1,11.8c1.6,6.6-1.3,11.8-7.4,11.8
		C1718.4,867.4,1713.1,862.3,1711.5,855.6z M1726.8,855.6c-1-4.1-3.8-7.3-6.8-7.3c-3,0-4.3,3-3.3,7.3c1,4.2,3.8,7.3,6.8,7.3
		C1726.6,862.9,1727.8,859.8,1726.8,855.6z"/>
	<path class="st3" d="M946,1019.2l-3.8,1l-2.1-4.1l6.2-2l3.5,0l5.6,23l-5,0L946,1019.2z"/>
	<path class="st3" d="M964,1025.7c-1.6-6.6,1.3-11.8,7.4-11.8c6.1,0,11.5,5.1,13.1,11.8c1.6,6.6-1.3,11.8-7.4,11.8
		C970.9,1037.5,965.6,1032.3,964,1025.7z M979.3,1025.6c-1-4.1-3.8-7.3-6.8-7.3c-3,0-4.3,3-3.3,7.3c1,4.2,3.8,7.3,6.8,7.3
		C979.1,1032.9,980.3,1029.8,979.3,1025.6z"/>
	<path class="st3" d="M1045.7,1025.5c-1.6-6.6,1.3-11.8,7.4-11.8c6.1,0,11.5,5.1,13.1,11.8c1.6,6.6-1.3,11.8-7.4,11.8
		C1052.6,1037.3,1047.3,1032.2,1045.7,1025.5z M1061,1025.5c-1-4.1-3.8-7.3-6.8-7.3c-3,0-4.3,3-3.3,7.3c1,4.2,3.8,7.3,6.8,7.3
		C1060.8,1032.8,1062,1029.7,1061,1025.5z"/>
	<path class="st3" d="M1076.4,1025.5c-1.6-6.6,1.3-11.8,7.4-11.8c6.1,0,11.5,5.1,13.1,11.8c1.6,6.6-1.3,11.8-7.4,11.8
		C1083.3,1037.3,1078,1032.2,1076.4,1025.5z M1091.7,1025.4c-1-4.1-3.8-7.3-6.8-7.3c-3,0-4.3,3-3.3,7.3c1,4.2,3.8,7.3,6.8,7.3
		C1091.5,1032.7,1092.7,1029.7,1091.7,1025.4z"/>
	<path class="st3" d="M1021.8,1153.6c-1.6-6.6,1.3-11.8,7.4-11.8c6.1,0,11.5,5.1,13.1,11.8c1.6,6.6-1.3,11.8-7.4,11.8
		C1028.7,1165.4,1023.4,1160.3,1021.8,1153.6z M1037.1,1153.6c-1-4.1-3.8-7.3-6.8-7.3c-3,0-4.3,3-3.3,7.3c1,4.2,3.8,7.3,6.8,7.3
		C1036.9,1160.9,1038.1,1157.8,1037.1,1153.6z"/>
	<path class="st3" d="M1054.8,1147.1l-3.8,1l-2.1-4.1l6.2-2l3.5,0l5.6,23l-5,0L1054.8,1147.1z"/>
	<path class="st3" d="M973.2,1147.2l-3.8,1l-2.1-4.1l6.2-2l3.5,0l5.6,23l-5,0L973.2,1147.2z"/>
	<path class="st3" d="M991.1,1153.7c-1.6-6.6,1.3-11.8,7.4-11.8c6.1,0,11.5,5.1,13.1,11.8c1.6,6.6-1.3,11.8-7.4,11.8
		C998.1,1165.5,992.8,1160.3,991.1,1153.7z M1006.4,1153.6c-1-4.1-3.8-7.3-6.8-7.3c-3,0-4.3,3-3.3,7.3c1,4.2,3.8,7.3,6.8,7.3
		C1006.3,1160.9,1007.5,1157.8,1006.4,1153.6z"/>
	<path class="st7" d="M1072.8,1153.5c-1.6-6.6,1.3-11.8,7.4-11.8c6.1,0,11.5,5.1,13.1,11.8c1.6,6.6-1.3,11.8-7.4,11.8
		C1079.7,1165.3,1074.4,1160.2,1072.8,1153.5z M1088.1,1153.5c-1-4.1-3.8-7.3-6.8-7.3c-3,0-4.3,3-3.3,7.3c1,4.2,3.8,7.3,6.8,7.3
		C1087.9,1160.8,1089.1,1157.7,1088.1,1153.5z"/>
	<path class="st7" d="M1103.5,1153.5c-1.6-6.6,1.3-11.8,7.4-11.8c6.1,0,11.5,5.1,13.1,11.8c1.6,6.6-1.3,11.8-7.4,11.8
		C1110.4,1165.3,1105.1,1160.2,1103.5,1153.5z M1118.8,1153.4c-1-4.1-3.8-7.3-6.8-7.3c-3,0-4.3,3-3.3,7.3c1,4.2,3.8,7.3,6.8,7.3
		C1118.6,1160.7,1119.8,1157.7,1118.8,1153.4z"/>
	<path class="st3" d="M983.9,1194.8c-1.6-6.6,1.3-11.8,7.4-11.8c6.1,0,11.5,5.1,13.1,11.8c1.6,6.6-1.3,11.8-7.4,11.8
		C990.8,1206.6,985.5,1201.5,983.9,1194.8z M999.2,1194.8c-1-4.1-3.8-7.3-6.8-7.3c-3,0-4.3,3-3.3,7.3c1,4.2,3.8,7.3,6.8,7.3
		C999,1202,1000.2,1199,999.2,1194.8z"/>
	<path class="st3" d="M1016.9,1188.2l-3.8,1l-2.1-4.1l6.2-2l3.5,0l5.6,23l-5,0L1016.9,1188.2z"/>
	<path class="st3" d="M1034.9,1194.7c-1.6-6.6,1.3-11.8,7.4-11.8c6.1,0,11.5,5.1,13.1,11.8c1.6,6.6-1.3,11.8-7.4,11.8
		C1041.8,1206.5,1036.6,1201.4,1034.9,1194.7z M1050.2,1194.7c-1-4.1-3.8-7.3-6.8-7.3c-3,0-4.3,3-3.3,7.3c1,4.2,3.8,7.3,6.8,7.3
		C1050,1201.9,1051.2,1198.9,1050.2,1194.7z"/>
	<path class="st3" d="M1065.6,1194.6c-1.6-6.6,1.3-11.8,7.4-11.8c6.1,0,11.5,5.1,13.1,11.8c1.6,6.6-1.3,11.8-7.4,11.8
		C1072.5,1206.4,1067.2,1201.3,1065.6,1194.6z M1080.9,1194.6c-1-4.1-3.8-7.3-6.8-7.3c-3,0-4.3,3-3.3,7.3c1,4.2,3.8,7.3,6.8,7.3
		C1080.7,1201.9,1081.9,1198.8,1080.9,1194.6z"/>
	<path class="st3" d="M1107,1025.4c-1.6-6.6,1.3-11.8,7.4-11.8c6.1,0,11.5,5.1,13.1,11.8c1.6,6.6-1.3,11.8-7.4,11.8
		C1113.9,1037.2,1108.7,1032.1,1107,1025.4z M1122.3,1025.4c-1-4.1-3.8-7.3-6.8-7.3c-3,0-4.3,3-3.3,7.3c1,4.2,3.8,7.3,6.8,7.3
		C1122.1,1032.7,1123.4,1029.6,1122.3,1025.4z"/>
	<path class="st3" d="M1137.7,1025.4c-1.6-6.6,1.3-11.8,7.4-11.8c6.1,0,11.5,5.1,13.1,11.8c1.6,6.6-1.3,11.8-7.4,11.8
		C1144.6,1037.2,1139.3,1032.1,1137.7,1025.4z M1153,1025.3c-1-4.1-3.8-7.3-6.8-7.3c-3,0-4.3,3-3.3,7.3c1,4.2,3.8,7.3,6.8,7.3
		C1152.8,1032.6,1154,1029.5,1153,1025.3z"/>
	<path class="st7" d="M1060.8,1302.5c-1.6-6.6,1.3-11.8,7.4-11.8c6.1,0,11.5,5.1,13.1,11.8c1.6,6.6-1.3,11.8-7.4,11.8
		C1067.7,1314.3,1062.4,1309.2,1060.8,1302.5z M1076.1,1302.5c-1-4.1-3.8-7.3-6.8-7.3c-3,0-4.3,3-3.3,7.3c1,4.2,3.8,7.3,6.8,7.3
		C1075.9,1309.8,1077.1,1306.7,1076.1,1302.5z"/>
	<path class="st7" d="M1093.8,1296l-3.8,1l-2.1-4.1l6.2-2l3.5,0l5.6,23l-5,0L1093.8,1296z"/>
	<path class="st3" d="M998.1,1238.4l-3.8,1l-2.1-4.1l6.2-2l3.5,0l5.6,23l-5,0L998.1,1238.4z"/>
	<path class="st3" d="M1016.1,1244.9c-1.6-6.6,1.3-11.8,7.4-11.8c6.1,0,11.5,5.1,13.1,11.8c1.6,6.6-1.3,11.8-7.4,11.8
		C1023,1256.7,1017.7,1251.6,1016.1,1244.9z M1031.4,1244.8c-1-4.1-3.8-7.3-6.8-7.3c-3,0-4.3,3-3.3,7.3c1,4.2,3.8,7.3,6.8,7.3
		C1031.2,1252.1,1032.4,1249.1,1031.4,1244.8z"/>
	<path class="st3" d="M1046.8,1244.8c-1.6-6.6,1.3-11.8,7.4-11.8c6.1,0,11.5,5.1,13.1,11.8c1.6,6.6-1.3,11.8-7.4,11.8
		C1053.7,1256.6,1048.4,1251.5,1046.8,1244.8z M1062.1,1244.8c-1-4.1-3.8-7.3-6.8-7.3c-3,0-4.3,3-3.3,7.3c1,4.2,3.8,7.3,6.8,7.3
		C1061.9,1252.1,1063.1,1249,1062.1,1244.8z"/>
	<path class="st3" d="M1079.8,1238.3l-3.8,1l-2-4.1l6.2-2l3.5,0l5.6,23l-5,0L1079.8,1238.3z"/>
	<path class="st3" d="M1012.1,1296.1l-3.8,1l-2.1-4.1l6.2-2l3.5,0l5.6,23l-5,0L1012.1,1296.1z"/>
	<path class="st3" d="M1030.1,1302.6c-1.6-6.6,1.3-11.8,7.4-11.8c6.1,0,11.5,5.1,13.1,11.8c1.6,6.6-1.3,11.8-7.4,11.8
		C1037,1314.4,1031.7,1309.3,1030.1,1302.6z M1045.4,1302.6c-1-4.1-3.8-7.3-6.8-7.3c-3,0-4.3,3-3.3,7.3c1,4.2,3.8,7.3,6.8,7.3
		C1045.2,1309.8,1046.4,1306.8,1045.4,1302.6z"/>
	<path class="st3" d="M1111.8,1302.5c-1.6-6.6,1.3-11.8,7.4-11.8c6.1,0,11.5,5.1,13.1,11.8c1.6,6.6-1.3,11.8-7.4,11.8
		C1118.7,1314.3,1113.4,1309.1,1111.8,1302.5z M1127.1,1302.4c-1-4.1-3.8-7.3-6.8-7.3c-3,0-4.3,3-3.3,7.3c1,4.2,3.8,7.3,6.8,7.3
		C1126.9,1309.7,1128.1,1306.6,1127.1,1302.4z"/>
	<path class="st3" d="M1142.4,1302.4c-1.6-6.6,1.3-11.8,7.4-11.8c6.1,0,11.5,5.1,13.1,11.8c1.6,6.6-1.3,11.8-7.4,11.8
		C1149.3,1314.2,1144,1309.1,1142.4,1302.4z M1157.7,1302.4c-1-4.1-3.8-7.3-6.8-7.3c-3,0-4.3,3-3.3,7.3c1,4.2,3.8,7.3,6.8,7.3
		C1157.5,1309.7,1158.7,1306.6,1157.7,1302.4z"/>
	<path class="st7" d="M1072.6,1343.3c-1.6-6.6,1.3-11.8,7.4-11.8c6.1,0,11.5,5.1,13.1,11.8c1.6,6.6-1.3,11.8-7.4,11.8
		C1079.5,1355.1,1074.2,1350,1072.6,1343.3z M1087.9,1343.3c-1-4.1-3.8-7.3-6.8-7.3c-3,0-4.3,3-3.3,7.3c1,4.2,3.8,7.3,6.8,7.3
		C1087.7,1350.6,1088.9,1347.5,1087.9,1343.3z"/>
	<path class="st7" d="M1105.6,1336.8l-3.8,1l-2.1-4.1l6.2-2l3.5,0l5.6,23l-5,0L1105.6,1336.8z"/>
	<path class="st3" d="M1041.9,1343.4c-1.6-6.6,1.3-11.8,7.4-11.8c6.1,0,11.5,5.1,13.1,11.8c1.6,6.6-1.3,11.8-7.4,11.8
		C1048.8,1355.2,1043.5,1350,1041.9,1343.4z M1057.2,1343.3c-1-4.1-3.8-7.3-6.8-7.3c-3,0-4.3,3-3.3,7.3c1,4.2,3.8,7.3,6.8,7.3
		S1058.2,1347.5,1057.2,1343.3z"/>
	<path class="st3" d="M1123.6,1343.2c-1.6-6.6,1.3-11.8,7.4-11.8c6.1,0,11.5,5.1,13.1,11.8c1.6,6.6-1.3,11.8-7.4,11.8
		C1130.5,1355,1125.2,1349.9,1123.6,1343.2z M1138.9,1343.2c-1-4.1-3.8-7.3-6.8-7.3c-3,0-4.3,3-3.3,7.3c1,4.2,3.8,7.3,6.8,7.3
		C1138.7,1350.5,1139.9,1347.4,1138.9,1343.2z"/>
	<path class="st3" d="M1154.3,1343.2c-1.6-6.6,1.3-11.8,7.4-11.8c6.1,0,11.5,5.1,13.1,11.8c1.6,6.6-1.3,11.8-7.4,11.8
		C1161.2,1355,1155.9,1349.9,1154.3,1343.2z M1169.6,1343.1c-1-4.1-3.8-7.3-6.8-7.3c-3,0-4.3,3-3.3,7.3c1,4.2,3.8,7.3,6.8,7.3
		C1169.4,1350.4,1170.6,1347.4,1169.6,1343.1z"/>
	<path class="st3" d="M1173.1,1302.4c-1.6-6.6,1.3-11.8,7.4-11.8c6.1,0,11.5,5.1,13.1,11.8c1.6,6.6-1.3,11.8-7.4,11.8
		C1180,1314.2,1174.7,1309,1173.1,1302.4z M1188.4,1302.3c-1-4.1-3.8-7.3-6.8-7.3c-3,0-4.3,3-3.3,7.3c1,4.2,3.8,7.3,6.8,7.3
		C1188.2,1309.6,1189.4,1306.5,1188.4,1302.3z"/>
	<path class="st3" d="M1203.8,1302.3c-1.6-6.6,1.3-11.8,7.4-11.8c6.1,0,11.5,5.1,13.1,11.8c1.6,6.6-1.3,11.8-7.4,11.8
		C1210.7,1314.1,1205.4,1309,1203.8,1302.3z M1219.1,1302.3c-1-4.1-3.8-7.3-6.8-7.3c-3,0-4.3,3-3.3,7.3c1,4.2,3.8,7.3,6.8,7.3
		C1218.9,1309.6,1220.1,1306.5,1219.1,1302.3z"/>
	<path class="st3" d="M2018.9,905.9l-3.8,1l-2.1-4.1l6.2-2l3.5,0l5.6,23l-5,0L2018.9,905.9z"/>
	<path class="st3" d="M2036.8,912.3c-1.6-6.6,1.3-11.8,7.4-11.8c6.1,0,11.5,5.1,13.1,11.8c1.6,6.6-1.3,11.8-7.4,11.8
		C2043.8,924.1,2038.5,919,2036.8,912.3z M2052.1,912.3c-1-4.1-3.8-7.3-6.8-7.3c-3,0-4.3,3-3.3,7.3c1,4.2,3.8,7.3,6.8,7.3
		C2052,919.6,2053.2,916.5,2052.1,912.3z"/>
	<path class="st3" d="M2067.5,912.3c-1.6-6.6,1.3-11.8,7.4-11.8c6.1,0,11.5,5.1,13.1,11.8c1.6,6.6-1.3,11.8-7.4,11.8
		C2074.4,924.1,2069.1,919,2067.5,912.3z M2082.8,912.3c-1-4.1-3.8-7.3-6.8-7.3c-3,0-4.3,3-3.2,7.3c1,4.2,3.8,7.3,6.8,7.3
		C2082.6,919.5,2083.8,916.5,2082.8,912.3z"/>
	<path class="st3" d="M2098.2,912.2c-1.6-6.6,1.3-11.8,7.4-11.8c6.1,0,11.5,5.1,13.1,11.8c1.6,6.6-1.3,11.8-7.4,11.8
		C2105.1,924,2099.8,918.9,2098.2,912.2z M2113.5,912.2c-1-4.1-3.8-7.3-6.8-7.3c-3,0-4.3,3-3.3,7.3c1,4.2,3.8,7.3,6.8,7.3
		C2113.3,919.5,2114.5,916.4,2113.5,912.2z"/>
	<path class="st3" d="M2131.2,905.7l-3.8,1l-2.1-4.1l6.2-2l3.5,0l5.6,23l-5,0L2131.2,905.7z"/>
	<path class="st3" d="M1985.8,967.5c-1.6-6.6,1.3-11.8,7.4-11.8c6.1,0,11.5,5.1,13.1,11.8c1.6,6.6-1.3,11.8-7.4,11.8
		C1992.7,979.3,1987.5,974.2,1985.8,967.5z M2001.1,967.5c-1-4.1-3.8-7.3-6.8-7.3c-3,0-4.3,3-3.3,7.3c1,4.2,3.8,7.3,6.8,7.3
		C2001,974.7,2002.2,971.7,2001.1,967.5z"/>
	<path class="st3" d="M2018.9,960.9l-3.8,1l-2.1-4.1l6.2-2l3.5,0l5.6,23l-5,0L2018.9,960.9z"/>
	<path class="st7" d="M2036.8,967.4c-1.6-6.6,1.3-11.8,7.4-11.8c6.1,0,11.5,5.1,13.1,11.8c1.6,6.6-1.3,11.8-7.4,11.8
		C2043.8,979.2,2038.5,974.1,2036.8,967.4z M2052.1,967.4c-1-4.1-3.8-7.3-6.8-7.3c-3,0-4.3,3-3.3,7.3c1,4.2,3.8,7.3,6.8,7.3
		C2052,974.6,2053.2,971.6,2052.1,967.4z"/>
	<path class="st7" d="M2067.5,967.3c-1.6-6.6,1.3-11.8,7.4-11.8c6.1,0,11.5,5.1,13.1,11.8c1.6,6.6-1.3,11.8-7.4,11.8
		C2074.4,979.1,2069.1,974,2067.5,967.3z M2082.8,967.3c-1-4.1-3.8-7.3-6.8-7.3c-3,0-4.3,3-3.2,7.3c1,4.2,3.8,7.3,6.8,7.3
		C2082.6,974.6,2083.8,971.5,2082.8,967.3z"/>
	<path class="st7" d="M2098.2,967.3c-1.6-6.6,1.3-11.8,7.4-11.8c6.1,0,11.5,5.1,13.1,11.8c1.6,6.6-1.3,11.8-7.4,11.8
		C2105.1,979.1,2099.8,974,2098.2,967.3z M2113.5,967.3c-1-4.1-3.8-7.3-6.8-7.3c-3,0-4.3,3-3.3,7.3c1,4.2,3.8,7.3,6.8,7.3
		C2113.3,974.5,2114.5,971.5,2113.5,967.3z"/>
	<path class="st7" d="M2131.2,960.7l-3.8,1l-2.1-4.1l6.2-2l3.5,0l5.6,23l-5,0L2131.2,960.7z"/>
	<path class="st3" d="M2125,1278.9l-3.8,1l-2.1-4.1l6.2-2l3.5,0l5.6,23l-5,0L2125,1278.9z"/>
	<path class="st3" d="M2142.9,1285.3c-1.6-6.6,1.3-11.8,7.4-11.8c6.1,0,11.5,5.1,13.1,11.8c1.6,6.6-1.3,11.8-7.4,11.8
		C2149.9,1297.1,2144.6,1292,2142.9,1285.3z M2158.2,1285.3c-1-4.1-3.8-7.3-6.8-7.3c-3,0-4.3,3-3.3,7.3c1,4.2,3.8,7.3,6.8,7.3
		C2158.1,1292.6,2159.3,1289.5,2158.2,1285.3z"/>
	<path class="st3" d="M2173.6,1285.3c-1.6-6.6,1.3-11.8,7.4-11.8c6.1,0,11.5,5.1,13.1,11.8c1.6,6.6-1.3,11.8-7.4,11.8
		C2180.5,1297.1,2175.2,1292,2173.6,1285.3z M2188.9,1285.3c-1-4.1-3.8-7.3-6.8-7.3c-3,0-4.3,3-3.3,7.3c1,4.2,3.8,7.3,6.8,7.3
		C2188.7,1292.5,2189.9,1289.5,2188.9,1285.3z"/>
	<path class="st3" d="M2094.8,1316.3l-3.8,1l-2.1-4.1l6.2-2l3.5,0l5.6,23l-5,0L2094.8,1316.3z"/>
	<path class="st3" d="M2112.8,1322.8c-1.6-6.6,1.3-11.8,7.4-11.8c6.1,0,11.5,5.1,13.1,11.8c1.6,6.6-1.3,11.8-7.4,11.8
		C2119.7,1334.6,2114.4,1329.4,2112.8,1322.8z M2128.1,1322.7c-1-4.1-3.8-7.3-6.8-7.3c-3,0-4.3,3-3.3,7.3c1,4.2,3.8,7.3,6.8,7.3
		C2127.9,1330,2129.1,1326.9,2128.1,1322.7z"/>
	<path class="st3" d="M2143.5,1322.7c-1.6-6.6,1.3-11.8,7.4-11.8c6.1,0,11.5,5.1,13.1,11.8c1.6,6.6-1.3,11.8-7.4,11.8
		C2150.4,1334.5,2145.1,1329.4,2143.5,1322.7z M2158.8,1322.7c-1-4.1-3.8-7.3-6.8-7.3c-3,0-4.3,3-3.3,7.3c1,4.2,3.8,7.3,6.8,7.3
		C2158.6,1330,2159.8,1326.9,2158.8,1322.7z"/>
	<path class="st3" d="M2204.3,1285.2c-1.6-6.6,1.3-11.8,7.4-11.8c6.1,0,11.5,5.1,13.1,11.8c1.6,6.6-1.3,11.8-7.4,11.8
		C2211.2,1297,2205.9,1291.9,2204.3,1285.2z M2219.6,1285.2c-1-4.1-3.8-7.3-6.8-7.3s-4.3,3-3.3,7.3c1,4.2,3.8,7.3,6.8,7.3
		C2219.4,1292.5,2220.6,1289.4,2219.6,1285.2z"/>
	<path class="st3" d="M2237.3,1278.7l-3.8,1l-2.1-4.1l6.2-2l3.5,0l5.6,23l-5,0L2237.3,1278.7z"/>
	<g>
		<g>
			<path class="st15" d="M2650.8,1019.7c11.4-1.1,37.6,2,54.7,25.3c17.1,23.3,5.3,50.9,48,72.1c42.8,21.2,36.6,48,28.1,81.5
				c-8.6,33.6-44.4,74.1-87.2,72.1c-42.8-2-115.9-90-113.3-119.5c2.6-29.5,15.3-33.1,5.3-52.6
				C2570.6,1068.1,2599.9,1024.6,2650.8,1019.7z"/>
			<path class="st10" d="M2667.5,1159.8c0.2-0.3,0.3-0.5,0.3-0.5c-4.7-1.7-5.1-8.6-0.8-37.4l-2.3,0.1l-38.2,1.8
				c0,0-0.9,11.8-2.5,22.8c-0.3,2.2-0.7,4.3-1,6.4C2594.3,1181.6,2656.1,1194.5,2667.5,1159.8z"/>
			<path class="st16" d="M2589.4,1934.4h82.5c0,0,2-12.6-2.3-22.1c-4.1-9.2-10.6-14.8-11.1-21.8c-5.2,5.4-11.7,8.9-23.6,7.3
				c-1.5,2.4-9.4,15-14.3,18.6C2615.1,1920.1,2591.1,1918.8,2589.4,1934.4z"/>
			<path class="st12" d="M2686.3,1597.2c-7.7,19-13.6,36.2-11.7,51.4c0,0,0,0.1,0,0.1c0.2,1.7,0.5,3.3,0.9,5
				c27.1,108.2-11.3,249.1-11.3,249.1s-10.1,2.3-17.5,3c-13,1.2-14.9-2.7-14.9-2.7s-12.9-114.9-54.7-334.6
				c-6-31.7-8.4-49.3-10.6-77.5c-0.7-8.4-1.3-17.8-2-28.9c-1.9-29.6,2.6-79.4,24.8-92.5c10.1-6,23.9-4.3,42.4,10.2
				c1.5,1.2,2.8,2.5,4.5,3.7C2749.8,1465.4,2709.7,1539.4,2686.3,1597.2z"/>
			<path class="st13" d="M2674.5,1648.6c-1.3-4.5-42.2-147.3-42.8-158.1c-1.5-23.3,52.5,41.1,54.6,106.7
				C2678.6,1616.2,2672.7,1633.4,2674.5,1648.6z"/>
			<path class="st16" d="M2963.7,1760.8l-34.3-75c0,0-12.3,3.4-19.1,11.3c-6.6,7.6-11.4,6.2-26.4-4.2c5.7,8.7,6.4,13.9,9.9,25.4
				c2.8,0.3,18.5,15.6,34.6,19.8C2934.8,1739.7,2948.8,1765.8,2963.7,1760.8z"/>
			<path class="st12" d="M2603.8,1402.5c0,0,73.9,256.9,101,273.5c27.1,16.5,161,49.4,200.5,57.3c0,0,1.4-10.7-0.7-21.5
				c-0.5-2.4-4.5-11-4.5-11s-70.3-70.3-139-80.2c-14.4-2.1,5.8-226.7-91.8-235.5C2580.2,1377,2603.8,1402.5,2603.8,1402.5z"/>
			<path class="st10" d="M2494.3,998.2c0,0,1.7-8.2,3.5-14.5c0.8-2.8-4.9-21-8.9-23.3c-4-2.2-14.3,10.1-11.4,19.5
				c1.5,4.9,4,20.6,4,20.6L2494.3,998.2z"/>
			<path class="st10" d="M2835.5,1013.5c0.5,1,1.2,2.9,1.8,4.7c0-0.5,0-1,0-1.4c0-3.5,13.1-22.5,18.4-23.7
				c5.4-1.2,12.9,16.6,6.2,26.5c-3.4,5.1-13.8,23.1-13.8,23.1l-11.5-6.9c0,0-0.1-4.8-3.2-8.8c-1.6-2-1.6-11.3-2.2-15.4
				C2831.4,1011.5,2833.7,1009.6,2835.5,1013.5z"/>
			<path class="st17" d="M2626.6,1123.8c0,0-0.9,11.8-2.5,22.8c20.8,2.5,34.6-14.8,40.7-24.6L2626.6,1123.8z"/>
			<path class="st15" d="M2671.9,1117.2c0,0,14.6-16.9,19.8-32.5c3.7-11.1,4.2-54.2-39.2-54.4c0,0-12.5-0.6-25.3,5.5
				c-10.1,4.9-25.4,16.3-16.1,55.4l2,13L2671.9,1117.2z"/>
			<path class="st10" d="M2616.4,1133.1c0,0,53.2,8.8,58.2-24.4c5-33.2,15.2-54.5-18.6-61.5c-33.8-7-42.3,4.7-46.6,15.3
				C2605,1073.2,2602.7,1130,2616.4,1133.1z"/>
			<path class="st15" d="M2626.5,1042.6c0,0,14.1,41.4,35.7,50.5c21.6,9.1,32.2,4.5,32.2,4.5s-15.2-16.2-15.2-40.6
				C2679.2,1057,2640.3,1025.7,2626.5,1042.6z"/>
			<path class="st15" d="M2635,1046.5c0,0-9.8,2.6-18.5,13.1c-5.7,6.9-7.7,16.5-10.3,26c0,0-7.1-28.1,7.5-41.3
				C2629.2,1030.4,2635,1046.5,2635,1046.5z"/>
			<path class="st1" d="M2850.4,1042.7c0,0-11.7,95.4-36.3,118.2c-17.1,15.8-77.6,41.4-92.1,64.9c-1.7,2.8-3.8,10.8-5.5,22.6
				c-4.9,34.6-6.1,102.2,16.4,170c1,3.1,2.1,6.3,3.3,9.4c3.1,8.4-1.1,17.7-9.5,20.6c-10.6,3.8-26.2,8.5-44.6,11.7
				c-3.5,0.6-7.1,1.2-10.8,1.6c-50.8,6.4-85.1-5.5-102.6-14.3c-8.2-4.2-13.2-12.8-12.7-22c1-18.8,10.5-37.5,14.7-82.7
				c3.2-34.4-20.2-82.8-19-101.1c0.5-7.2,4.1-39.3,0.4-44.3c-24.2-33.2-64.8-64.9-71-95.2c-7.2-34.9-2.5-104.6-2.5-104.6
				c2-0.7,7.4-2.8,11.3-2.8c6.9,0,11.7,6.3,11.7,6.3s18.1,67.9,19,72.4c4.8,24.3,51.1,59.6,65.1,66.7c15.4,7.8,27.6,11.9,37.3,12.8
				c0,0-11.4,19.7,5.5,22.5c20.3,3.3,36-20.1,36-20.1s12.3,3.5,34.6,0.2c18.4-2.7,84.1-24.9,93.6-41.8c6.9-12.3,43.4-80.2,43.4-80.2
				s3.4-2,8.8,0.9C2850.3,1037.2,2850.4,1042.7,2850.4,1042.7z"/>
			<path class="st11" d="M2631.9,1115.1c0,0-2.3,4.6-5.3,4.7c-3.1,0.1-10.8-0.7-11.4-1.4c-0.5-0.8-1.8-5.6-1.8-5.6
				S2626.2,1112.2,2631.9,1115.1z"/>
			<path class="st3" d="M2732.9,1418.5c0,0-45.7-7.8-48.7-40.3c-3.2-34.6,32.2-129.7,32.2-129.7l0,0.1
				C2711.5,1283.1,2710.3,1350.6,2732.9,1418.5z"/>
		</g>
		<g>
			<path class="st7" d="M2621.6,618.6l-4.8-17.5c-5.1-18.7-21.1-32.5-40.3-34.7l-124.1-14.7l-9.3,78.8l-39.7,336.2l513.5,60.6
				l39.7-336.2l-290.6-34.3C2644.7,654.3,2627.2,639.2,2621.6,618.6z"/>
			<g>
				<path class="st11" d="M2500,813.3l3.5-29.9l110.4-33.6l-3.6,30.6l-76.8,21.5l69.7,38.8l-3.7,31L2500,813.3z"/>
				<path class="st11" d="M2727.1,726.9l28,3.3l-119.7,189.4l-28-3.3L2727.1,726.9z"/>
				<path class="st11" d="M2862.1,825.7l-3.5,29.9l-110.4,33.6l3.6-30.6l76.8-21.5l-69.7-38.8l3.7-31L2862.1,825.7z"/>
			</g>
		</g>
		<path class="st10" d="M2832.6,1024.3c0,0-1.5-13.2-2.8-15.7c-1.3-2.5,2-3.2,4.8,2.5c2.8,5.7,8.4,3.9,11.2,9.5
			c2.8,5.6,0.3,7.1-3.1,6.7C2839.2,1027,2832.6,1024.3,2832.6,1024.3z"/>
		<path class="st10" d="M2495.2,993.9c0,0,7.5-8.1,7.5-11.8c0-3.6,5.3-12.7,3.8-14.3c-1.5-1.6-4.1,1-5.5,3.5
			c-1.4,2.5-7.2,2.3-8.5,9.1C2491.2,987.1,2495.2,993.9,2495.2,993.9z"/>
	</g>
	<polygon class="st3" points="2396.6,1492.4 2384.7,1492.4 2287.5,1121.5 2162.6,644.8 767.4,644.8 978.7,1492.4 963.6,1492.5 
		749.7,633.3 2172.4,632.1 2173.7,636.8 2298.5,1116.1 	"/>
	<polygon class="st1" points="2398.7,1500.6 2387.3,1502.2 2287.5,1121.5 2298.5,1116.1 	"/>
	<path class="st10" d="M966.7,844.5c-2.6,3-2.9,6.3-1.6,9.9c0,0,0,0,0,0c2.4,6.6,10.3,13.9,19.4,21.3c1.2,0.9,2.2,1.8,3.1,2.6
		c0.2,0.2,0.5,0.4,0.7,0.6c0.2,0.2,0.4,0.3,0.5,0.5c8.5,7.9,5.3,9.7,20.7,25.6c17.5,18.2,29.5,18.5,32.9,16.9
		c2.9-1.4-3-11.1-9.5-21.9c-0.3-0.5-0.6-1.1-1-1.6c-0.9-1.4-1.7-2.9-2.6-4.4c-7.6-13-5.7-19.2-3.9-38.6
		c1.5-15.8,24.5-88.2,24.5-88.2l-33.5-5.8c0,0-10.1,57.6-21.2,66.5c-5.9,4.7-12.6,4.8-18.3,8.3c-0.4,0.2-0.8,0.5-1.2,0.8
		C972.7,839.3,969.4,841.5,966.7,844.5z"/>
	<path class="st13" d="M966.7,844.5c-2.6,3-2.9,6.3-1.6,9.9c0,0,0,0,0,0c2.9,6.6,10.6,13.9,19.4,21.2c1.2,1,2.2,1.8,3.1,2.7
		c0.2,0.2,0.5,0.4,0.7,0.6c0.2,0.2,0.4,0.3,0.5,0.5c8.5,7.9,5.3,9.7,20.7,25.6c17.5,18.2,29.5,18.5,32.9,16.9
		c2.9-1.4-3-11.1-9.5-21.9c-3.4-1.2-19.2-7.7-31.2-23c-10.5-13.4-17.5-30.7-24.7-40.7c-0.4,0.2-0.8,0.5-1.2,0.8
		C972.7,839.3,969.4,841.5,966.7,844.5z"/>
	<path class="st10" d="M1236.8,823.6c2.1,10.3,16.8,8.6,33.3,4.6c16.5-4,12.6,0.8,36-1.8c23.4-2.6,30.5-11.3,31.2-14.8
		c0.6-3.1-10.9-4.2-23.4-5.6c-1.6-0.2-3.1-0.4-4.7-0.6c-14-1.8-24.3-10.8-37-18.2c-12.1-7-30.1-35.7-30.1-35.7l-32.1,2.5
		c0,0,16.9,25.6,23.4,36.8c3.8,6.6,3.6,15.2,3.2,21.9C1236.4,816.2,1236.1,819.9,1236.8,823.6z"/>
	<path class="st13" d="M1270.1,828.2c16.5-4,12.6,0.8,36-1.8c23.4-2.6,30.5-11.3,31.2-14.8c0.6-3.1-10.9-4.2-23.4-5.6l-0.1,0.2
		c0,0-14.1,10-33.6,10.4c-15.9,0.4-32.7-4.2-43.7-4c-0.2,3.6-0.5,7.4,0.2,11C1238.9,833.9,1253.7,832.2,1270.1,828.2z"/>
	<path class="st9" d="M1113.7,618l-30,80.8l-39.2,105.6c0,0-10.6,1-20.8-1.9c-9.4-2.7-20.2-9.8-20.2-9.8s10.9-113.3,31.2-178.4
		c5.2-16.7,11-30.2,17.5-37.8C1083.6,539.3,1113.7,618,1113.7,618z"/>
	<path class="st12" d="M1083.1,489.7c-19.7-6.3-75.8,1.8-132.2,12.8L939.1,483l-121.8-9.5c0,0-40.2,89.1-18.2,145.9
		c3.2,8.3,9.7,13.7,20.6,13.9c0,0,1.8,0,1.8,0c0,0,72.5,0,96,0c60.6,0,128.2-41.6,137-43.4c14.3-2.9,20,25.8,34.4,55.8
		c14.3,30.1,134.6,133.2,134.6,133.2s18.5,0.2,26.1-2.7c8.2-3.1,11.2-7.1,11.2-7.1S1127.5,504,1083.1,489.7z"/>
	<path class="st18" d="M898.7,112.2c-17.1-4.4-40.4,0-44.3,0.4c-46.3,4.6-61.9,56.3-54.9,96.4c6.5,37-12.3,47.3-34.1,76.5
		c-43.6,58.6-15.1,108.1,19.3,120.8c20.7,7.6,49.3-11.6,49.3-11.6c0.5,0.2,90.1-58.7,126.8-91.9
		C1022.1,278.8,942.2,123.4,898.7,112.2z"/>
	<path class="st10" d="M905.6,281.8c1.2,4.3-19.1,12.2-34.5,9.3c-14.6-2.7-30.9-19.8-27.5-21.4c5.6-2.6,9.3-9.2,6.3-44.8l2.8,0.3
		l46.6,5.3c0,0,0.1,14.5,1.2,28.1C901.3,270,903.6,274.8,905.6,281.8z"/>
	<path class="st17" d="M899.2,230.5c0,0,0.1,14.5,1.2,28.1c-25.7,1.4-41.2-20.9-47.8-33.4L899.2,230.5z"/>
	<path class="st10" d="M908.8,242.6c0,0-60.6,6-63.7-31.8c-3.1-37.8-13.1-62.5,25.5-67.9c38.6-5.4,47.3,8.4,51.4,20.7
		C926.1,176,924.5,240.1,908.8,242.6z"/>
	<path class="st18" d="M902.3,137c0,0-7.6,46.2-42.1,57.1c-25.2,8-36.6,2.7-36.6,2.7s12.1-16.1,16.4-38.4c1.3-6.6,6-12,12.3-14.1
		C870.2,138.4,891.9,122.3,902.3,137z"/>
	<path class="st18" d="M890.9,146.8c0,0,11.4,2.5,21.5,17.3c5.5,8.1,11.9,28.4,10.8,37.3c0,0,10.6-42.7-4.9-58.6
		C902,125.9,890.9,146.8,890.9,146.8z"/>
	<path class="st7" d="M796.5,405.9c1.1,4.6,2,8.8,2.8,12.7c1.2,6.3,2.1,11.7,2.7,16.5c1.9,14.9,1.3,23.7,2.5,33.4
		c0.7,5.4,2,11.1,4.5,18.2c2.5,6.9,68.4,13.1,105.8,10.6c11.9-0.8,21-2.4,24.2-5.2c13.4-11.6,12,13.9,13.9-108.2
		c0.9-59.6-50.6-112.7-50.6-112.7s-4.1,25.5-55.1-4.8c-1.8-1.1-21.9,28.7-41.3,65.3C784.6,372.2,790.4,380.7,796.5,405.9z"/>
	<path class="st18" d="M1083.6,698.9l-39.2,105.6c0,0-10.6,1-20.8-1.9c-9.4-2.7-20.2-9.8-20.2-9.8s10.9-113.3,31.2-178.4
		L1083.6,698.9z"/>
	<path class="st7" d="M902.3,271.2c0,0,52.5,8.9,58.7,31.5c6.2,22.6,48.8,149,48.8,149s-33,11.3-45.3-1.1
		c-12.3-12.3-42.9-114.4-42.9-114.4L902.3,271.2z"/>
	<path class="st10" d="M1116.3,422.7l12.4-4.9c0,0,7.5-1.7,11.5-0.4c4,1.3,14.2,1.1,14.2,2.8c0,1.7-11.5,6.8-11.5,6.8l-0.4-0.1
		c4.4,10,26.4,15.6,27.4,19.3c1.3,4.4-8.9,6.7-14.5,8.1c-5.6,1.4-19.2,1.2-26-5.9c-4.9-5.2-13.2-12.3-13.2-12.3V422.7z"/>
	<path class="st11" d="M894.8,220.4c0,0,2.5,6.2,9.3,6.2c6.7,0,8.5-1,9.8-2.4c1.3-1.4,2.5-4.2,2.5-4.2S905.3,217.8,894.8,220.4z"/>
	<path class="st7" d="M995.1,408l127.1,9.7c0,0,2.7,12.3-5.5,26.3c0,0-114.7,22.4-144.6,11c-29.9-11.5-26.6-65.4-26.6-65.4
		L995.1,408z"/>
	<path class="st6" d="M801.9,435.1c1.9,14.9,1.3,23.7,2.5,33.4c47.7,0.2,111.4-36.8,111.4-36.8L801.9,435.1z"/>
	<path class="st6" d="M915.9,400.5c0,0-74.3-2.2-86.8-44.4c-13.8-46.4-29.2,19.1-29.2,19.1l8.2,41.8h81.5L915.9,400.5z"/>
	<g>
		<path class="st1" d="M1045.3,285.9l-4-9.9c-4.3-10.7-14.6-17.6-26.1-17.6h-74v47v200.6h306.3V305.3h-173.3
			C1061.4,305.3,1050.1,297.6,1045.3,285.9z"/>
		<g>
			<path class="st11" d="M987.3,408.9V391l62.6-27.4v18.2l-43.7,18l43.7,18v18.5L987.3,408.9z"/>
			<path class="st11" d="M1115,342.3h16.7L1074.4,462h-16.7L1115,342.3z"/>
			<path class="st11" d="M1201.2,391v17.8l-62.6,27.4V418l43.7-18l-43.7-18v-18.5L1201.2,391z"/>
		</g>
	</g>
	<path class="st10" d="M915.8,410.2l5.4-8.4c0,0,4.3-1.4,10.2-5.6c7.1-5,6.2-12.4,9.7-11.7l0,16.4l-0.4,0.1
		c15.2,4.1,33-0.4,33.4,3.4c1,10.4-7.1,15.1-13.8,18.4c-5.2,2.5-11,6.2-20.4,3.3c-6.8-2.1-17.6-4.3-17.6-4.3L915.8,410.2z"/>
	<path class="st7" d="M847.2,266.4c0,0-48.2,3.2-60.3,22c-12.1,18.8-27,114.3-20.7,147.1c6.3,32.8,160.7-6.3,160.7-6.3l-4.9-28.4
		c0,0-89.1,0.5-94.2-11.1C821,374.1,847.2,266.4,847.2,266.4z"/>
	<path class="st10" d="M1079.9,305.2c-0.4,1.2,7.2,13.9,18.2,11.7c6.8-1.4,15.7-16.1,7.9-19.3C1093,292.2,1081,301.9,1079.9,305.2z"
		/>
</g>
</svg>
