<?xml version="1.0" encoding="utf-8"?>
<!-- Generator: Adobe Illustrator 24.2.1, SVG Export Plug-In . SVG Version: 6.00 Build 0)  -->
<svg version="1.1" id="Calque_1" xmlns="http://www.w3.org/2000/svg" xmlns:xlink="http://www.w3.org/1999/xlink" x="0px" y="0px"
	 viewBox="0 0 2000 2000" style="enable-background:new 0 0 2000 2000;" xml:space="preserve">
<style type="text/css">
	.st0{fill:#FEBE52;}
	.st1{fill:#EEA427;}
	.st2{fill:#DD8C2C;}
	.st3{fill:#7F4024;}
	.st4{fill:#472B0E;}
</style>
<g>
	<g>
		<path class="st0" d="M1844.5,996.1c0.1,32.1-0.9,62.9-3.1,92.5c-8,105.9-31.1,197.8-71.1,280.7c-35.1,72.6-83,138.3-144.9,200.6
			c-58.9,59.3-130.5,115.8-215.6,172.1c-9.4,6.3-41.3,21.7-84.4,40.5c-28.1,12.4-60.9,26.4-95.2,40.2
			c-102.2,41.3-217.9,83-263.1,84.4c-10.3,0.3-20.4,0.6-30.5,0.6c-347.3,0-618.8-73.3-760.8-390.5c-13.5-30.2-91-206.5-100.8-238.1
			C-45,896.6,245.6,403.7,431.1,239.6l0,0c1.3-1.1,2.4-2.1,3.6-3.1c35.5-30.9,90.7-58.7,140.6-78.8l0,0
			c43.5-17.7,82.8-29.7,101.5-32.8c453.1-77.4,691.5-29.4,954.9,281.2c103.2,121.8,169.8,269.8,197.9,424.8
			C1839.3,885.3,1844.2,940.8,1844.5,996.1z"/>
		<path class="st1" d="M1443.4,1731.8c-4.8,3.3-9.7,6.6-14.5,9.7c-33.9,22.5-359,162.5-442.9,165.3c-10.3,0.3-20.4,0.6-30.5,0.6
			c-347.3,0-618.8-73.3-760.8-390.5c-2.3-5.1-6.6-14.7-12-26.9c-26.2-59.5-80.7-184.9-89-211.2c-0.6-1.9-1.1-3.8-1.7-5.7
			C-24,888.7,269.3,396,453.6,235.9c62.5-54.2,185.4-99,233.4-109.9c-3,2.4-6,4.8-8.8,7.3c-109.8,95.5-258.4,309-335.8,547.2
			c-11,33.8-20.5,67.9-28.4,102.4c-30.2,132.6-34.6,268.8,4.4,393.2c10,31.7,87.3,207.9,100.8,238.1
			c142,317.2,413.5,390.5,760.8,390.5c10.1,0,20.4-0.1,30.5-0.6C1251.5,1802.8,1349.6,1768.9,1443.4,1731.8z"/>
	</g>
	<path class="st2" d="M1353.1,1765.9c-61,21.7-114.8,37.4-142.4,38.4c-3.4,0.1-7,0.1-10.4,0.3c17.4,9.6,33.8,15.4,48.9,18
		c33.5-13.5,65.4-27.1,93-39.2c0.4-0.1,0.9-0.4,1.3-0.6c0.4-0.1,0.7-0.3,1.1-0.4C1347.8,1777,1350.6,1771.6,1353.1,1765.9z"/>
	<path class="st2" d="M448.7,253.4c6.6,48.1,33.2,71.3,64.4,76.9c37.8-56.9,76.7-106.7,113.4-146.4c-1.3-2.1-2.6-4.4-4.1-6.6
		c-7.3-9.1-17.3-16.1-28.2-20.2l0,0c-0.1,0-0.1,0.1-0.3,0.1c-3,1.1-5.8,2.4-8.8,3.7c-0.1,0-0.1,0.1-0.3,0.1c-3.1,1.3-6.3,2.7-9.4,4
		c-0.1,0-0.3,0.1-0.3,0.1c-2.9,1.3-5.7,2.6-8.6,3.8c-0.9,0.4-1.7,0.9-2.7,1.3c-2.1,1-4.3,2-6.4,2.9c-1,0.4-2.1,1-3.1,1.4
		c-2,1-4,1.9-6,2.9c-1.1,0.6-2.1,1-3.3,1.6c-2,1-4,2-5.8,2.9c-1,0.6-2.1,1-3.1,1.6c-2.1,1-4.1,2.1-6.3,3.3c-0.9,0.4-1.7,0.9-2.6,1.3
		c-2.6,1.3-5,2.7-7.4,4c-0.4,0.3-0.9,0.4-1.3,0.7c-6,3.3-11.7,6.6-17.4,10c-0.6,0.3-1,0.6-1.6,1c-2.3,1.3-4.4,2.7-6.7,4.1
		c-0.7,0.4-1.4,1-2.3,1.4c-2,1.3-3.8,2.4-5.8,3.7c-0.9,0.6-1.6,1.1-2.4,1.6c-1.9,1.1-3.6,2.4-5.3,3.7c-0.9,0.6-1.6,1.1-2.4,1.7
		c-1.7,1.3-3.4,2.4-5.1,3.7c-0.7,0.6-1.6,1.1-2.3,1.7c-1.7,1.3-3.4,2.7-5.1,4c-0.6,0.4-1.3,1-1.9,1.4c-2.3,1.9-4.4,3.7-6.6,5.4
		c-1.1,1-2.4,2.1-3.7,3.3C449.1,243.7,448.7,248.4,448.7,253.4z"/>
	<g>
		<g>
			<path class="st1" d="M448.7,253.4c-0.1-5,0.4-9.7,1.3-14.3l0,0c1.3-1.1,2.4-2.1,3.6-3.1c35.5-30.9,90.7-58.7,140.6-78.8l0,0
				c11,4.1,21,11.1,28.2,20.2C705.7,302.2,470.3,410.8,448.7,253.4z"/>
			<path class="st3" d="M550,161.7c-36.8,4.7-72.6,28.4-71.9,69.4c21.7,157.6,257.1,48.9,173.8-76c-13.1-16.4-35.1-26.1-56-24.5
				C571.7,132.6,570.8,154.3,550,161.7z"/>
			<path class="st4" d="M520.8,205.8c-0.3-16.5,5.4-30.2,14.5-41.1c-31.1,8.4-57.9,30.9-57.3,66.6c13.4,97.1,108.1,93,159.1,46.2
				C588.1,294.8,531.1,279.5,520.8,205.8z"/>
		</g>
		<g>
			<path class="st1" d="M355.8,382.3c3.8,95.5,147.3,83.8,110.2-13.8C443.2,321.6,367.8,334.2,355.8,382.3z"/>
			<path class="st2" d="M355.8,382.3c2.3,58,56.2,76.4,89.8,60.2c8.7-16,17.5-31.5,26.5-46.6c-0.3-8.1-2.3-17.3-6-27.2
				C443.2,321.6,367.8,334.2,355.8,382.3z"/>
			<path class="st3" d="M385.3,360.2c3.8,95.5,147.3,83.8,110.2-13.8C472.8,299.5,397.2,312.1,385.3,360.2z"/>
			<path class="st4" d="M428.1,334.7c1.6-6.3,4.1-11.8,7.6-16.8c-121.5,30.9,10.3,165.8,60.5,82.6
				C465.1,402.3,430,381.2,428.1,334.7z"/>
		</g>
		<g>
			<path class="st1" d="M648.3,484.7C555.9,590.3,790.6,644.1,806.5,530C813,440,698.6,425.6,648.3,484.7z"/>
			<path class="st3" d="M677.8,462.6C585.4,568.2,820.1,622,836,507.9C842.5,417.9,728.1,403.5,677.8,462.6z"/>
			<path class="st4" d="M720.4,437c1.4-1.7,3-3.4,4.6-5c-17.8,5.6-34.6,15.7-47.3,30.7c-81,92.7,89.5,145.4,143.4,80
				C752.5,560,655.4,511.3,720.4,437z"/>
		</g>
		<g>
			<path class="st1" d="M1192.5,1022.3c-50.4,131,188.4,100.8,164.2-11.8C1331.8,923.8,1219.5,949.6,1192.5,1022.3z"/>
			<path class="st3" d="M1212.6,991.4c-50.4,131,188.4,100.8,164.2-11.8C1351.9,892.9,1239.6,918.7,1212.6,991.4z"/>
			<path class="st4" d="M1243.9,952.8c0.8-2.1,1.6-4.2,2.6-6.3c-14.8,11.3-27.1,26.6-33.9,45.1c-44.2,114.9,134.1,105.8,162.2,25.8
				C1316.2,1057.2,1208.3,1044.9,1243.9,952.8z"/>
		</g>
		<g>
			<path class="st1" d="M1166.7,267.4c15.4-13,5.1-39.9-15-39.4c-24.1,1-51.9,49.9-55.9,71.6c1.1,16.8,25,23.8,39.5,15.4
				c14.7-8.4,22-25.2,28.2-40.8L1166.7,267.4z"/>
			<path class="st3" d="M1196.2,245.3c15.4-13,5.1-39.9-15-39.4c-24.1,1-51.9,49.9-55.9,71.6c1.1,16.8,25,23.8,39.5,15.4
				c14.7-8.4,22-25.2,28.2-40.8L1196.2,245.3z"/>
			<path class="st4" d="M1168.1,252c2-11.1,10.4-29.4,21.2-44.8c-2.7-0.9-5.6-1.3-8.1-1.3c-24.1,1-51.9,49.9-55.9,71.6
				c1.1,16.8,25,23.8,39.5,15.4c9-6.6,15.5-14.3,20.7-23C1176.4,267.5,1168.8,261.2,1168.1,252z"/>
		</g>
		<g>
			<path class="st1" d="M1031.5,1387c12.5-33.9-27.5-66.8-58.3-48.1c-36.7,23-36.6,123.9-23.6,161.3c16.7,25.2,60.1,15,75.3-11.1
				c15.4-26.2,11.8-58.9,7.8-88.7L1031.5,1387z"/>
			<path class="st3" d="M1056.5,1357.7c12.5-33.9-27.5-66.8-58.3-48.1c-36.7,23-36.6,123.9-23.6,161.3c16.7,25.2,60.1,15,75.3-11.1
				c15.4-26.2,11.8-58.9,7.8-88.7L1056.5,1357.7z"/>
			<path class="st4" d="M1018.6,1393.1c-6.8-19.1-9.9-55.1-6.7-88.7c-5,1.1-9.8,2.9-13.8,5.2c-36.7,23-36.6,123.9-23.6,161.3
				c16.7,25.2,60.1,15,75.3-11.1c8.2-18.2,11.6-36,11.8-54.2C1045.3,1410,1028,1406.9,1018.6,1393.1z"/>
		</g>
		<g>
			<path class="st1" d="M1368.3,248c-47.6-15.1-112.8,10.6-113.8,66c10.7,91.4,152.6,161,219.3,83.7c22.7-32.2,53.6-103.8,2.1-123.5
				c-17.8-5.4-32.7,9-49.3,0.7C1407.1,265.2,1390,253.5,1368.3,248z"/>
			<path class="st3" d="M1397.8,225.9c-47.6-15.1-112.8,10.6-113.8,66c10.7,91.4,152.6,161,219.3,83.7
				c22.7-32.2,53.6-103.8,2.1-123.5c-17.8-5.4-32.7,9-49.3,0.7C1436.5,243.1,1419.4,231.4,1397.8,225.9z"/>
			<path class="st4" d="M1326.8,266.4c0.3-16.4,6.3-30.2,15.7-41.2c-31.4,8.4-57.7,31.5-58.5,66.7c10.4,89.8,147.9,158.6,215.9,87.5
				C1428.9,399.3,1335.4,339.8,1326.8,266.4z"/>
		</g>
		<g>
			<path class="st1" d="M1224.7,631.2c-20.4-8.8-50.5-0.3-53.3,24.3c0.7,41,60.6,78.1,93.5,46.7c11.5-13.3,28.3-43.7,6.4-54.6
				c-7.7-3.2-14.9,2.5-21.9-1.8C1241.2,640.5,1234.1,634.6,1224.7,631.2z"/>
			<path class="st3" d="M1238.8,622.7c-20.4-8.8-50.5-0.3-53.3,24.3c0.7,41,60.6,78.1,93.5,46.7c11.5-13.3,28.3-43.7,6.4-54.6
				c-7.7-3.2-14.9,2.5-21.9-1.8C1255.2,632,1248.1,626.1,1238.8,622.7z"/>
			<path class="st4" d="M1205.5,637.5c0.8-7.3,4.1-13.1,8.8-17.6c-14.3,2.4-27,11.4-28.8,27c0.7,40.3,58.6,76.8,91.9,48.3
				C1245,700.9,1206.1,670.5,1205.5,637.5z"/>
		</g>
		<g>
			<path class="st1" d="M1530.6,742c-3,34.5,28.7,58.3,53.8,76.7c68.7,44.8,49.8-77.4,14.4-100
				C1574.5,699.5,1534.8,708.5,1530.6,742z"/>
			<path class="st3" d="M1545.3,727.3c-3,34.5,28.7,58.3,53.8,76.7c68.7,44.8,49.8-77.4,14.4-100
				C1589.2,684.9,1549.5,693.7,1545.3,727.3z"/>
			<path class="st4" d="M1641.8,778.4c-25.1-18.4-56.7-42.2-53.8-76.7c0.3-2.6,1-5,1.7-7.3c-20.5-2.3-41.3,9-44.5,32.9
				c-3,34.5,28.7,58.3,53.8,76.7c33.8,22,46.3,3.6,46.2-23.4C1644.1,780,1642.9,779.2,1641.8,778.4z"/>
		</g>
		<g>
			<path class="st1" d="M1863.6,995.5c0.1,32.1-0.9,62.9-3.1,92.5c-8.1,5-17.1,9.4-26.9,13.3c-70.9,30.2-128.8-21.2-108.5-95.7
				c11.8-52.5,4.4-115.5,36.6-160.4c28.1-28.5,59.3-29.9,86.8-15C1858.4,884.8,1863.5,940.2,1863.6,995.5z"/>
			<path class="st3" d="M1791.2,823.2c-32.2,44.9-24.8,107.9-36.6,160.4c-20.1,74.4,37.6,125.8,108.5,95.5
				C2053.8,1005.1,1898.9,713.4,1791.2,823.2z"/>
			<path class="st4" d="M1905.8,1053.6c-70.9,30.2-128.6-21.2-108.5-95.5c11.5-51.6,4.6-113.5,35.1-158.3
				c-14,2.4-27.9,9.8-41.2,23.4c-32.2,44.9-24.8,107.9-36.6,160.4c-20.1,74.4,37.6,125.8,108.5,95.5c18.3-7.1,33.4-16.3,45.8-26.8
				C1907.8,1052.7,1906.8,1053.1,1905.8,1053.6z"/>
		</g>
		<g>
			<path class="st1" d="M1789.4,1368.8c-35.1,72.6-83,138.3-144.9,200.6c-25.4,9.1-54.3,10.3-88-0.1c-25.8-1.1-39.2-21.7-38.5-46.5
				c-8.8-70.4,0.4-151.3,69.6-187.2c22.1-29.5,21.7-49.6,66.7-37.2C1702,1306.8,1781.5,1320.2,1789.4,1368.8z"/>
			<path class="st3" d="M1617.1,1313.6c-69.2,35.8-78.4,116.9-69.6,187.2c-0.7,24.7,12.5,45.3,38.4,46.5
				c117.1,36.2,178.4-68.4,224.3-158.3c41.2-84-67.2-102.4-126.5-112.6C1638.8,1264,1639.2,1284.1,1617.1,1313.6z"/>
			<path class="st4" d="M1628.7,1521.8c-25.8-1.1-39.2-21.8-38.4-46.5c-8.8-70.4,0.4-151.4,69.6-187.2c3.8-5.3,7.1-10.1,10-14.7
				c-31.2-4.6-33.2,14.3-52.8,40.2c-69.2,35.8-78.4,116.9-69.6,187.2c-0.7,24.7,12.5,45.3,38.4,46.5c55,17,97.8,2.9,132.3-26.2
				C1692.5,1530.8,1663,1532.4,1628.7,1521.8z"/>
		</g>
		<g>
			<path class="st1" d="M1389.4,1398.2c-34.4,22.4,13.4,78.3,44.6,62.3C1499.5,1434.6,1447,1342.6,1389.4,1398.2z"/>
			<path class="st3" d="M1411.5,1390.8c-34.4,22.4,13.4,78.3,44.6,62.3C1521.6,1427.1,1469.1,1335.2,1411.5,1390.8z"/>
			<path class="st4" d="M1446,1373.4c-10.6,0.7-22.4,5.8-34.5,17.4c-34.4,22.4,13.4,78.3,44.6,62.3c13.7-5.4,22.2-13.8,26.7-23.1
				C1457.9,1426.7,1432.8,1394.1,1446,1373.4z"/>
		</g>
		<g>
			<path class="st1" d="M1344.5,1782.2c-28.1,12.4-60.9,26.4-95.2,40.2c-18.3-3.1-38.5-10.8-60.2-24.5
				c-63.7-89.1-57.9-113.9,45.2-155.7C1358,1627,1382.4,1724,1344.5,1782.2z"/>
			<path class="st3" d="M1263.5,1627.5c-103.1,41.8-108.8,66.7-45.2,155.7C1398,1896.7,1473.1,1601.9,1263.5,1627.5z"/>
			<path class="st4" d="M1261.1,1757.6c-43.6-61-54.6-92-24.1-118.8c-77,35.6-76.3,63.6-18.5,144.3c64.9,40.9,116.1,28.7,145.3-2.6
				C1335.9,1787.9,1301.2,1782.9,1261.1,1757.6z"/>
		</g>
		<g>
			<path class="st2" d="M494.3,1561.3c-94.1-61.2-132.7,115.6-77.1,165.4C531.8,1774.5,611.1,1605.2,494.3,1561.3z"/>
			<path class="st3" d="M523.8,1539.2c-94.1-61.2-132.7,115.6-77.1,165.4C561.3,1752.4,640.4,1583.1,523.8,1539.2z"/>
			<path class="st4" d="M489.4,1679.1c-34.6-31.1-32.8-111.1-3.7-152.6c-65.4,1.3-86.4,135.6-39.1,178.1
				c43.2,18,81.4,5.1,105.9-20.2C533.8,1689.5,512.2,1688.6,489.4,1679.1z"/>
		</g>
		<g>
			<path class="st2" d="M325.6,1426.1c-17,66.2-83.1,70-142.9,63.7c-26.2-59.5-80.7-184.9-89-211.2c-0.6-1.9-1.1-3.8-1.7-5.7
				C190.2,1237.2,346,1312.4,325.6,1426.1z"/>
			<path class="st3" d="M97.3,1262.9c-50.9,35.4-68.6,117.8-23.8,164.5c23,23.1,57.6,28.9,89.8,33.6c66.3,9.8,170,28.2,191.8-57
				C377.4,1280.3,190.9,1202.3,97.3,1262.9z"/>
			<path class="st4" d="M206.1,1435.6c-32.2-4.7-66.9-10.6-89.8-33.6c-40.2-42.1-29.9-112.9,9.4-152.4c-10.1,3.3-19.5,7.7-28.4,13.4
				c-50.9,35.4-68.6,117.8-23.8,164.5c23,23.1,57.6,28.9,89.8,33.6c55,8.3,135.9,22.2,174.2-22.2
				C296.9,1450.1,245,1441.4,206.1,1435.6z"/>
		</g>
		<g>
			<path class="st1" d="M869.5,1184.2c-17,66.2-82.8,63.1-142.9,63.7c-134.8,1.5-278-105.6-89-211.2"/>
			<path class="st3" d="M641.2,1021c-50.9,35.4-68.6,117.8-23.8,164.5c23,23.1,57.6,28.9,89.8,33.6c66.3,9.8,170,28.2,191.8-57
				C921.3,1038.4,734.8,960.4,641.2,1021z"/>
			<path class="st4" d="M750,1193.6c-32.2-4.7-66.9-10.6-89.8-33.6c-40.2-42.1-29.9-112.9,9.4-152.4c-10.1,3.3-19.5,7.7-28.4,13.4
				c-50.9,35.4-68.6,117.8-23.8,164.5c23,23.1,57.6,28.9,89.8,33.6c55,8.3,135.9,22.2,174.2-22.2
				C840.8,1208.2,788.9,1199.5,750,1193.6z"/>
		</g>
		<g>
			<path class="st1" d="M262,725.6c-35.5-141,224.9,3.7,117.2,73C341.1,816.6,276.6,758.7,262,725.6z"/>
			<path class="st2" d="M342.4,680.4c-11,33.8-20.5,67.9-28.4,102.4c-23.7-16.4-44.5-40.1-52-57.2
				C244.9,657.8,296.4,656.2,342.4,680.4z"/>
			<path class="st3" d="M284.1,710.9c-35.5-141,224.9,3.7,117.2,73C363.2,801.9,298.7,743.9,284.1,710.9z"/>
			<path class="st4" d="M326.9,685.4c-3.4-13.7-4.1-24.7-2.6-33.4c-30.2-3.8-52.3,11-40.2,58.9c14.5,32.9,79.1,91,117.2,73
				c10.7-6.8,17.7-14.5,21.8-22.5C385.8,757.6,338.9,712.8,326.9,685.4z"/>
		</g>
		<g>
			<path class="st2" d="M179.7,873.9c-31.1-38.8-78.6,13.4-52.3,49.9c16.1,26.4,74.3,53.5,92.1,16.7
				C227.8,918.3,191,888.6,179.7,873.9z"/>
			<path class="st3" d="M194.6,859.2c-31.1-38.8-78.6,13.4-52.3,49.9c16.1,26.4,74.3,53.5,92.1,16.7
				C242.6,903.6,205.7,873.9,194.6,859.2z"/>
			<path class="st4" d="M185,883.5c-8.3-11.5-9.3-24.7-5.6-36.1c-28.8-11.4-59.3,30.8-37.2,61.6c16.1,26.4,74.3,53.5,92.1,16.7
				c1-2.9,1.4-5.8,1.1-8.8C215,912.4,193.7,897.9,185,883.5z"/>
		</g>
	</g>
</g>
</svg>
