<svg width="45" height="45" viewBox="0 0 45 45" fill="none" xmlns="http://www.w3.org/2000/svg">
<path fill-rule="evenodd" clip-rule="evenodd" d="M22.5 0.444336C10.0687 0.444336 0 10.5131 0 22.9443C0 32.9006 6.44062 41.31 15.3844 44.2912C16.5094 44.4881 16.9312 43.8131 16.9312 43.2225C16.9312 42.6881 16.9031 40.9162 16.9031 39.0318C11.25 40.0725 9.7875 37.6537 9.3375 36.3881C9.08438 35.7412 7.9875 33.7443 7.03125 33.21C6.24375 32.7881 5.11875 31.7475 7.00312 31.7193C8.775 31.6912 10.0406 33.3506 10.4625 34.0256C12.4875 37.4287 15.7219 36.4725 17.0156 35.8818C17.2125 34.4193 17.8031 33.435 18.45 32.8725C13.4438 32.31 8.2125 30.3693 8.2125 21.7631C8.2125 19.3162 9.08438 17.2912 10.5188 15.7162C10.2937 15.1537 9.50625 12.8475 10.7437 9.75371C10.7437 9.75371 12.6281 9.16309 16.9312 12.06C18.7312 11.5537 20.6437 11.3006 22.5562 11.3006C24.4688 11.3006 26.3813 11.5537 28.1812 12.06C32.4844 9.13496 34.3688 9.75371 34.3688 9.75371C35.6063 12.8475 34.8188 15.1537 34.5938 15.7162C36.0281 17.2912 36.9 19.2881 36.9 21.7631C36.9 30.3975 31.6406 32.31 26.6344 32.8725C27.45 33.5756 28.1531 34.9256 28.1531 37.035C28.1531 40.0443 28.125 42.4631 28.125 43.2225C28.125 43.8131 28.5469 44.5162 29.6719 44.2912C34.1385 42.7832 38.0197 39.9125 40.7694 36.0831C43.519 32.2538 44.9987 27.6586 45 22.9443C45 10.5131 34.9313 0.444336 22.5 0.444336Z" fill="#919191"/>
</svg>
