<svg width="45" height="46" viewBox="0 0 45 46" fill="none" xmlns="http://www.w3.org/2000/svg">
<path d="M8.81832 0.334473C3.96893 0.334473 0 4.30332 0 9.15279V36.5176C0 41.367 3.96884 45.3345 8.81832 45.3345H36.1831C41.0326 45.3345 45 41.367 45 36.5176V9.15279C45 4.30341 41.0326 0.334473 36.1831 0.334473H8.81832ZM11.0363 7.76038C13.3614 7.76038 14.7936 9.28682 14.8379 11.2933C14.8379 13.2555 13.3613 14.8248 10.9913 14.8248H10.9477C8.66674 14.8248 7.19248 13.2556 7.19248 11.2933C7.19248 9.28686 8.71135 7.76038 11.0362 7.76038H11.0363ZM31.0736 17.1384C35.5454 17.1384 38.8976 20.0612 38.8976 26.3421V38.0674H32.1017V27.1282C32.1017 24.3793 31.1182 22.5039 28.6588 22.5039C26.7813 22.5039 25.6622 23.7679 25.1709 24.989C24.9914 25.4259 24.9472 26.0361 24.9472 26.6472V38.0674H18.1514C18.1514 38.0674 18.2406 19.5367 18.1514 17.618H24.9486V20.5138C25.8517 19.1205 27.4671 17.1384 31.0736 17.1384V17.1384ZM7.59333 17.6195H14.3892V38.0675H7.59333V17.6195Z" fill="#919191"/>
</svg>
