<svg width="48" height="19" viewBox="0 0 48 19" fill="none" xmlns="http://www.w3.org/2000/svg">
    <path d="M28.62 3.01907C30.54 2.47907 32.88 1.99907 35.46 1.69906C32.04 1.21906 28.14 0.979065 24 0.979065C10.74 0.979065 0 3.55907 0 6.67907V16.3991C0 16.9391 0.42 17.3591 0.96 17.5391L5.94 18.8591C6.84 19.0991 7.8 18.5591 7.8 17.7191V6.67907C7.86 4.57907 15.06 2.83906 24 2.83906C25.62 2.83906 27.12 2.89907 28.62 3.01907Z" fill="white"/>
    <path d="M48 6.67908C48 5.29908 45.84 3.97908 42.3 3.01908C39.66 3.19908 37.32 3.49908 35.46 3.97908C38.34 4.69908 40.14 5.65908 40.14 6.67908V17.7191C40.14 18.4991 41.1 19.0991 42 18.8591L46.98 17.5391C47.58 17.3591 47.94 16.9391 47.94 16.3991L48 6.67908Z" fill="white"/>
    <path d="M18 10.8191C18.3 11.1791 18.48 11.5991 18.48 12.0791C18.48 12.4991 18.36 12.9191 18.12 13.3391C17.88 13.6991 17.58 14.0591 17.16 14.2991C16.74 14.5391 16.26 14.7791 15.66 14.8991C14.46 15.1391 13.26 15.4991 12.12 15.8591C12.12 13.0391 12.12 10.2791 12.12 7.45912C13.26 7.09912 14.4 6.79912 15.54 6.49912C16.08 6.37912 16.62 6.37912 16.98 6.49912C17.4 6.61912 17.7 6.79912 17.94 7.09912C18.18 7.39912 18.24 7.75912 18.24 8.17912C18.24 8.65912 18.12 9.07912 17.82 9.43912C17.58 9.79912 17.22 10.0991 16.8 10.3391C17.28 10.3391 17.7 10.5191 18 10.8191ZM13.74 10.3991C14.22 10.2791 14.76 10.1591 15.24 10.0391C15.66 9.91912 15.96 9.79912 16.14 9.55912C16.38 9.31912 16.44 9.07912 16.44 8.71912C16.44 8.35912 16.32 8.11912 16.14 7.99912C15.9 7.87912 15.6 7.81912 15.24 7.93912C14.76 8.05912 14.22 8.17912 13.74 8.29912C13.74 9.01912 13.74 9.73912 13.74 10.3991ZM16.38 13.0391C16.62 12.7991 16.74 12.4991 16.74 12.1391C16.74 11.7791 16.62 11.5391 16.38 11.3591C16.14 11.1791 15.84 11.1791 15.42 11.2391C14.88 11.3591 14.34 11.4791 13.8 11.6591C13.8 12.4391 13.8 13.1591 13.8 13.9391C14.34 13.7591 14.94 13.6391 15.48 13.5191C15.84 13.4591 16.14 13.2791 16.38 13.0391Z" fill="white"/>
    <path d="M25.68 6.1391C26.34 6.4991 26.88 7.0391 27.24 7.6991C27.6 8.3591 27.78 9.1391 27.78 9.9791C27.78 10.8191 27.6 11.5391 27.24 12.1391C26.88 12.7391 26.34 13.1591 25.68 13.5191C25.02 13.8191 24.24 13.9991 23.34 13.9991C22.38 13.9991 21.36 14.0591 20.4 14.1791C20.4 11.3591 20.4 8.5991 20.4 5.7791C21.36 5.6591 22.38 5.6591 23.34 5.5991C24.24 5.5391 25.02 5.7191 25.68 6.1391ZM25.38 11.8391C25.86 11.3591 26.1 10.6991 26.1 9.85911C26.1 8.9591 25.86 8.2991 25.38 7.7591C24.9 7.2791 24.18 6.9791 23.34 6.9791C22.92 6.9791 22.56 6.9791 22.14 7.0391C22.14 8.8991 22.14 10.6991 22.14 12.5591C22.56 12.5591 22.92 12.4991 23.34 12.4991C24.18 12.4991 24.9 12.2591 25.38 11.8391Z" fill="white"/>
    <path d="M34.02 15.2591C33.42 13.9991 32.82 12.7991 32.16 11.5391C31.92 11.4791 31.62 11.4191 31.38 11.3591C31.38 12.4391 31.38 13.5191 31.38 14.5991C30.84 14.4791 30.24 14.4191 29.7 14.2991C29.7 11.4791 29.7 8.7191 29.7 5.8991C30.78 6.0791 31.8 6.2591 32.82 6.4991C33.48 6.6791 34.02 6.9191 34.44 7.2791C34.86 7.6391 35.22 8.0591 35.46 8.4791C35.7 8.9591 35.82 9.3791 35.82 9.8591C35.82 10.3991 35.64 10.8791 35.34 11.1791C35.04 11.5391 34.56 11.7191 33.96 11.7191C34.62 13.0391 35.28 14.3591 35.94 15.6791C35.28 15.6191 34.62 15.4391 34.02 15.2591ZM31.38 10.1591C31.86 10.2791 32.34 10.3391 32.76 10.4591C33.24 10.5791 33.54 10.5191 33.78 10.3991C34.02 10.2191 34.14 9.9791 34.14 9.5591C34.14 9.1991 34.02 8.8391 33.78 8.5991C33.54 8.3591 33.24 8.1191 32.76 8.0591C32.28 7.9391 31.8 7.8791 31.38 7.7591C31.38 8.4791 31.38 9.3191 31.38 10.1591Z" fill="white"/>
</svg>
