<svg width="500" height="500" viewBox="0 0 500 500" fill="none" xmlns="http://www.w3.org/2000/svg">
<rect x="11" y="11" width="478" height="478" rx="100" fill="#0066FF"/>
<path d="M284.886 196.602C299.571 192.472 317.467 188.801 337.199 186.507C311.043 182.836 281.215 181 249.553 181C148.14 181 66 200.732 66 224.594V298.933C66 303.062 69.2122 306.275 73.3421 307.651L111.429 317.747C118.312 319.582 125.655 315.452 125.655 309.028V224.594C126.113 208.533 181.179 195.225 249.553 195.225C261.942 195.225 273.414 195.684 284.886 196.602Z" fill="white"/>
<path d="M433.105 224.594C433.105 214.04 416.585 203.944 389.511 196.602C369.321 197.979 351.424 200.273 337.199 203.944C359.225 209.451 372.992 216.793 372.992 224.594V309.028C372.992 314.994 380.334 319.582 387.217 317.747L425.304 307.651C429.893 306.275 432.646 303.063 432.646 298.933L433.105 224.594Z" fill="white"/>
<path d="M203.664 256.257C205.959 259.01 207.335 262.222 207.335 265.893C207.335 269.106 206.418 272.318 204.582 275.53C202.747 278.283 200.452 281.037 197.24 282.872C194.028 284.708 190.357 286.543 185.768 287.461C176.59 289.296 167.413 292.05 158.694 294.803C158.694 273.236 158.694 252.127 158.694 230.56C167.413 227.806 176.132 225.512 184.85 223.218C188.98 222.3 193.11 222.3 195.863 223.218C199.076 224.135 201.37 225.512 203.206 227.806C205.041 230.101 205.5 232.854 205.5 236.066C205.5 239.737 204.582 242.949 202.288 245.703C200.452 248.456 197.699 250.75 194.487 252.586C198.158 252.586 201.37 253.963 203.664 256.257ZM171.084 253.045C174.755 252.127 178.885 251.209 182.556 250.292C185.768 249.374 188.062 248.456 189.439 246.62C191.275 244.785 191.733 242.949 191.733 240.196C191.733 237.443 190.816 235.607 189.439 234.69C187.604 233.772 185.309 233.313 182.556 234.231C178.885 235.148 174.755 236.066 171.084 236.984C171.084 242.491 171.084 247.997 171.084 253.045ZM191.275 273.236C193.11 271.4 194.028 269.106 194.028 266.352C194.028 263.599 193.11 261.764 191.275 260.387C189.439 259.01 187.145 259.01 183.933 259.469C179.803 260.387 175.673 261.305 171.543 262.681C171.543 268.647 171.543 274.153 171.543 280.119C175.673 278.742 180.261 277.824 184.391 276.907C187.145 276.448 189.439 275.071 191.275 273.236Z" fill="white"/>
<path d="M262.401 220.464C267.449 223.217 271.579 227.347 274.332 232.395C277.085 237.443 278.462 243.408 278.462 249.833C278.462 256.257 277.085 261.763 274.332 266.352C271.579 270.941 267.449 274.153 262.401 276.907C257.354 279.201 251.388 280.578 244.505 280.578C237.163 280.578 229.362 281.036 222.02 281.954C222.02 260.387 222.02 239.278 222.02 217.711C229.362 216.793 237.163 216.793 244.505 216.334C251.388 215.875 257.354 217.252 262.401 220.464ZM260.107 264.058C263.778 260.387 265.613 255.339 265.613 248.915C265.613 242.032 263.778 236.984 260.107 232.854C256.436 229.183 250.929 226.888 244.505 226.888C241.293 226.888 238.539 226.888 235.327 227.347C235.327 241.573 235.327 255.339 235.327 269.564C238.539 269.564 241.293 269.106 244.505 269.106C250.929 269.106 256.436 267.27 260.107 264.058Z" fill="white"/>
<path d="M326.186 290.214C321.597 280.578 317.008 271.4 311.96 261.763C310.125 261.305 307.831 260.846 305.995 260.387C305.995 268.647 305.995 276.906 305.995 285.166C301.865 284.249 297.276 283.79 293.146 282.872C293.146 261.305 293.146 240.196 293.146 218.629C301.406 220.005 309.207 221.382 317.008 223.217C322.056 224.594 326.186 226.43 329.398 229.183C332.61 231.936 335.363 235.148 337.199 238.36C339.034 242.031 339.952 245.244 339.952 248.915C339.952 253.045 338.576 256.716 336.281 259.01C333.987 261.763 330.316 263.14 325.727 263.14C330.775 273.235 335.822 283.331 340.87 293.426C335.822 292.967 330.775 291.591 326.186 290.214ZM305.995 251.209C309.666 252.127 313.337 252.586 316.549 253.504C320.22 254.421 322.515 253.962 324.35 253.045C326.186 251.668 327.104 249.832 327.104 246.62C327.104 243.867 326.186 241.114 324.35 239.278C322.515 237.443 320.22 235.607 316.549 235.148C312.878 234.23 309.207 233.772 305.995 232.854C305.995 238.36 305.995 244.785 305.995 251.209Z" fill="white"/>
</svg>
